<?xml version="1.0" encoding="UTF-8" standalone="no"?>
<!-- Created with Inkscape (http://www.inkscape.org/) -->

<svg
   xmlns:dc="http://purl.org/dc/elements/1.1/"
   xmlns:cc="http://creativecommons.org/ns#"
   xmlns:rdf="http://www.w3.org/1999/02/22-rdf-syntax-ns#"
   xmlns:svg="http://www.w3.org/2000/svg"
   xmlns="http://www.w3.org/2000/svg"
   xmlns:sodipodi="http://sodipodi.sourceforge.net/DTD/sodipodi-0.dtd"
   xmlns:inkscape="http://www.inkscape.org/namespaces/inkscape"
   width="210mm"
   height="297mm"
   viewBox="0 0 210 297"
   version="1.1"
   id="svg1057"
   inkscape:version="0.92.5 (2060ec1f9f, 2020-04-08)"
   sodipodi:docname="abc.svg">
  <defs
     id="defs1051" />
  <sodipodi:namedview
     id="base"
     pagecolor="#ffffff"
     bordercolor="#666666"
     borderopacity="1.0"
     inkscape:pageopacity="0.0"
     inkscape:pageshadow="2"
     inkscape:zoom="1.979899"
     inkscape:cx="205.24667"
     inkscape:cy="758.25217"
     inkscape:document-units="mm"
     inkscape:current-layer="layer1"
     showgrid="false"
     inkscape:window-width="1920"
     inkscape:window-height="948"
     inkscape:window-x="0"
     inkscape:window-y="27"
     inkscape:window-maximized="1" />
  <metadata
     id="metadata1054">
    <rdf:RDF>
      <cc:Work
         rdf:about="">
        <dc:format>image/svg+xml</dc:format>
        <dc:type
           rdf:resource="http://purl.org/dc/dcmitype/StillImage" />
        <dc:title></dc:title>
      </cc:Work>
    </rdf:RDF>
  </metadata>
  <g
     inkscape:label="Layer 1"
     inkscape:groupmode="layer"
     id="layer1">
    <g
       id="g6794">
      <path
         inkscape:connector-curvature="0"
         id="path146-3"
         style="fill:#000000;fill-opacity:1;fill-rule:nonzero;stroke:none;stroke-width:0.03527777"
         d="m 29.581173,73.074732 c -0.157338,-0.123825 -0.293158,-0.265641 -0.407458,-0.425097 -0.114653,-0.159456 -0.207433,-0.330906 -0.279047,-0.513644 -0.07161,-0.183092 -0.125236,-0.373592 -0.16122,-0.5715 -0.03598,-0.198262 -0.05397,-0.39617 -0.05397,-0.594431 0,-0.203553 0.01799,-0.404283 0.05397,-0.602192 0.03598,-0.198261 0.09031,-0.388761 0.163337,-0.571852 0.07302,-0.182739 0.166863,-0.353837 0.280811,-0.513645 0.114652,-0.159808 0.249061,-0.29845 0.403577,-0.41663 0,-0.0056 0.0067,-0.0085 0.02046,-0.0085 h 0.03704 c 0.0081,0 0.01588,0.0035 0.02258,0.01023 0.0071,0.0071 0.01058,0.01587 0.01058,0.02716 0,0.01094 -0.0028,0.01905 -0.0081,0.02434 -0.137936,0.135114 -0.252236,0.2794 -0.343252,0.433564 -0.09102,0.154164 -0.164748,0.318205 -0.221192,0.493183 -0.05644,0.174625 -0.09737,0.354895 -0.122061,0.540456 -0.0247,0.185914 -0.03704,0.380294 -0.03704,0.583847 0,0.897114 0.239889,1.577975 0.719314,2.042583 0.0081,0.0085 0.01235,0.0194 0.01235,0.03316 0,0.0081 -0.0035,0.01658 -0.01058,0.02469 -0.0067,0.0085 -0.01446,0.0127 -0.02258,0.0127 h -0.03704 c -0.01376,0 -0.02046,-0.0028 -0.02046,-0.0085" />
      <path
         inkscape:connector-curvature="0"
         id="path148-6"
         style="fill:#000000;fill-opacity:1;fill-rule:nonzero;stroke:none;stroke-width:0.03527777"
         d="m 30.074004,71.085771 c 0,-0.198261 0.04621,-0.37218 0.138289,-0.522111 0.09243,-0.149931 0.218369,-0.262819 0.37853,-0.338314 0.159809,-0.07585 0.33902,-0.113594 0.537281,-0.113594 0.201436,0 0.377119,0.02611 0.52705,0.07867 0.150636,0.05221 0.225425,0.158044 0.225425,0.3175 0,0.07973 -0.0254,0.145697 -0.0762,0.198261 -0.05115,0.05221 -0.115006,0.07832 -0.192617,0.07832 -0.07973,0 -0.14605,-0.02611 -0.198261,-0.07832 -0.05256,-0.05256 -0.07867,-0.118534 -0.07867,-0.198261 0,-0.08784 0.02611,-0.1524 0.07867,-0.193675 -0.07691,-0.01129 -0.170744,-0.01658 -0.281164,-0.01658 -0.137936,0 -0.244122,0.03845 -0.318558,0.115358 -0.07408,0.07726 -0.12312,0.173214 -0.146403,0.288925 -0.02364,0.115711 -0.03528,0.242006 -0.03528,0.379589 0,0.522817 0.198614,0.784225 0.595489,0.784225 0.07691,0 0.14852,-0.01376 0.214841,-0.04163 0.06597,-0.02716 0.123825,-0.06844 0.173567,-0.123472 0.04974,-0.05503 0.08714,-0.119945 0.111831,-0.194028 0.01093,-0.01905 0.02752,-0.03034 0.04939,-0.03316 h 0.107597 c 0.03563,0.0085 0.05362,0.02752 0.05362,0.05786 0,0.0028 -0.0014,0.0099 -0.0039,0.02046 -0.03598,0.112889 -0.09454,0.206728 -0.175684,0.280811 -0.08149,0.07444 -0.176388,0.129117 -0.285397,0.1651 -0.109008,0.03599 -0.224013,0.05362 -0.345369,0.05362 -0.192969,0 -0.370064,-0.03775 -0.531283,-0.113242 -0.16122,-0.07585 -0.288573,-0.186619 -0.382411,-0.332316 -0.09349,-0.14605 -0.140406,-0.319264 -0.140406,-0.519995" />
      <path
         inkscape:connector-curvature="0"
         id="path150-7"
         style="fill:#000000;fill-opacity:1;fill-rule:nonzero;stroke:none;stroke-width:0.03527777"
         d="m 32.353654,73.083199 c -0.02505,0 -0.03739,-0.0127 -0.03739,-0.03739 0,-0.01094 0.0028,-0.01905 0.0081,-0.02469 0.482602,-0.470253 0.723902,-1.153936 0.723902,-2.05105 0,-0.896761 -0.238478,-1.577622 -0.71508,-2.042583 -0.01129,-0.0056 -0.01693,-0.01658 -0.01693,-0.03281 0,-0.01129 0.0035,-0.02011 0.01058,-0.02716 0.0067,-0.0067 0.01552,-0.01023 0.02681,-0.01023 h 0.03704 c 0.0085,0 0.01517,0.0028 0.02046,0.0085 0.204258,0.159102 0.373944,0.35313 0.508705,0.58173 0.135114,0.228247 0.233892,0.471664 0.295981,0.73025 0.06174,0.258939 0.09278,0.522817 0.09278,0.792339 0,0.198261 -0.01658,0.394053 -0.04939,0.588081 -0.03316,0.194027 -0.08714,0.385233 -0.161571,0.573616 -0.07444,0.188736 -0.167922,0.36195 -0.280811,0.519995 -0.113242,0.158044 -0.248356,0.299155 -0.405694,0.42298 -0.0053,0.0056 -0.01199,0.0085 -0.02046,0.0085 h -0.03704" />
    </g>
    <g
       id="g6799">
      <path
         d="m 46.024331,77.274845 c -0.157339,-0.123825 -0.293158,-0.265995 -0.407458,-0.425803 -0.1143,-0.159808 -0.207081,-0.331611 -0.278695,-0.514703 -0.07197,-0.183444 -0.125588,-0.374297 -0.161572,-0.572558 -0.03563,-0.198614 -0.05362,-0.396875 -0.05362,-0.595489 0,-0.203906 0.01799,-0.404989 0.05362,-0.60325 0.03598,-0.198614 0.09031,-0.389467 0.163336,-0.572558 0.07338,-0.183445 0.166864,-0.354895 0.281164,-0.515056 0.1143,-0.159808 0.248709,-0.298803 0.403225,-0.417336 0,-0.0056 0.0067,-0.0085 0.02081,-0.0085 h 0.03704 c 0.0081,0 0.01588,0.0035 0.02258,0.01058 0.0071,0.0067 0.01023,0.01587 0.01023,0.02681 0,0.01094 -0.0025,0.0194 -0.0081,0.02469 -0.137583,0.135114 -0.252236,0.279753 -0.343253,0.43427 -0.09102,0.154163 -0.164747,0.318911 -0.221191,0.493888 -0.05609,0.174978 -0.09701,0.3556 -0.121709,0.541514 -0.02469,0.186267 -0.03704,0.381 -0.03704,0.584906 0,0.898525 0.239536,1.580797 0.718961,2.046464 0.0085,0.0085 0.01235,0.0194 0.01235,0.03316 0,0.0081 -0.0032,0.01658 -0.01023,0.02469 -0.0067,0.0085 -0.01446,0.01235 -0.02258,0.01235 h -0.03704 c -0.01411,0 -0.02081,-0.0025 -0.02081,-0.0081"
         style="fill:#000000;fill-opacity:1;fill-rule:nonzero;stroke:none;stroke-width:0.03527778"
         id="path1747"
         inkscape:connector-curvature="0" />
      <path
         d="m 46.798326,76.224625 v -2.571397 c 0,-0.05221 -0.02752,-0.08467 -0.0829,-0.09701 -0.05503,-0.01235 -0.125236,-0.01834 -0.210961,-0.01834 v -0.219075 l 0.765175,-0.03316 V 74.5133 c 0.176389,-0.129469 0.385586,-0.19438 0.628297,-0.19438 0.14605,0 0.280458,0.02293 0.402872,0.06844 0.122767,0.04515 0.228247,0.109361 0.316442,0.191911 0.0882,0.0829 0.156986,0.184855 0.206728,0.305858 0.04974,0.121356 0.07444,0.253647 0.07444,0.396875 0,0.198614 -0.04763,0.371475 -0.142523,0.518936 -0.09525,0.147461 -0.222602,0.259292 -0.382411,0.334786 -0.159808,0.07585 -0.339019,0.113947 -0.53728,0.113947 -0.118533,0 -0.231775,-0.02363 -0.339372,-0.07055 -0.107598,-0.04692 -0.201084,-0.110067 -0.281164,-0.190147 l -0.202495,0.235655 z m 0.499886,-0.429683 c 0.05539,0.08819 0.126294,0.157692 0.213078,0.208492 0.08678,0.05115 0.178505,0.07655 0.274813,0.07655 0.226131,0 0.374298,-0.07091 0.4445,-0.213078 0.0702,-0.141817 0.105481,-0.335139 0.105481,-0.580673 v -0.01235 c 0,-0.104775 -0.0049,-0.201789 -0.01447,-0.291394 -0.0095,-0.08961 -0.03034,-0.17145 -0.06209,-0.245886 -0.0314,-0.07444 -0.08114,-0.134409 -0.148518,-0.179917 -0.06773,-0.04551 -0.156634,-0.06844 -0.2667,-0.06844 -0.11042,0 -0.212372,0.02223 -0.305859,0.06632 -0.09384,0.0441 -0.173919,0.107244 -0.240241,0.190147 v 1.05022"
         style="fill:#000000;fill-opacity:1;fill-rule:nonzero;stroke:none;stroke-width:0.03527778"
         id="path1749"
         inkscape:connector-curvature="0" />
      <path
         d="m 49.33762,77.282959 c -0.02505,0 -0.03739,-0.01235 -0.03739,-0.03704 0,-0.01094 0.0028,-0.01905 0.0085,-0.02469 0.482247,-0.471311 0.723547,-1.156406 0.723547,-2.054931 0,-0.898172 -0.238478,-1.580444 -0.715433,-2.046111 -0.01094,-0.0056 -0.01658,-0.01658 -0.01658,-0.03316 0,-0.01094 0.0035,-0.02011 0.01023,-0.02681 0.0071,-0.0071 0.01587,-0.01058 0.02716,-0.01058 h 0.03704 c 0.0081,0 0.01517,0.0028 0.02081,0.0085 0.203905,0.159808 0.373239,0.353836 0.508353,0.582789 0.135114,0.228953 0.233539,0.472722 0.295627,0.731661 0.06209,0.259292 0.09278,0.523875 0.09278,0.79375 0,0.198614 -0.01623,0.395111 -0.04939,0.589492 -0.03316,0.194027 -0.08678,0.385586 -0.16122,0.574322 -0.07444,0.188736 -0.167922,0.362655 -0.281164,0.521053 -0.112888,0.158397 -0.248002,0.299861 -0.404988,0.423686 -0.0056,0.0056 -0.0127,0.0081 -0.02081,0.0081 h -0.03704"
         style="fill:#000000;fill-opacity:1;fill-rule:nonzero;stroke:none;stroke-width:0.03527778"
         id="path1751"
         inkscape:connector-curvature="0" />
    </g>
    <g
       id="g6804">
      <path
         d="M 65.57,75.270323 C 65.413367,75.146498 65.277547,75.004329 65.163247,74.84452 65.048594,74.684712 64.955814,74.512909 64.8842,74.329817 c -0.07197,-0.183444 -0.125589,-0.374297 -0.16122,-0.572558 -0.03598,-0.198614 -0.05398,-0.396875 -0.05398,-0.595489 0,-0.203905 0.01799,-0.404989 0.05398,-0.60325 0.03563,-0.198614 0.08996,-0.389466 0.162984,-0.572558 0.07303,-0.183444 0.166864,-0.354894 0.281164,-0.515055 0.114652,-0.159809 0.248708,-0.298803 0.402872,-0.417337 0,-0.0056 0.0071,-0.0085 0.02081,-0.0085 h 0.03739 c 0.0081,0 0.01587,0.0035 0.02258,0.01058 0.0071,0.0067 0.01058,0.01587 0.01058,0.02681 0,0.01094 -0.0028,0.0194 -0.0085,0.02469 -0.137583,0.135114 -0.251883,0.279752 -0.3429,0.434269 -0.09102,0.154164 -0.164747,0.318911 -0.221191,0.493889 -0.0568,0.174978 -0.09737,0.3556 -0.122062,0.541514 -0.02505,0.186266 -0.03739,0.381 -0.03739,0.584905 0,0.898525 0.239889,1.580797 0.719667,2.046464 0.0081,0.0085 0.01235,0.0194 0.01235,0.03316 0,0.0081 -0.0035,0.01658 -0.01058,0.02469 -0.0067,0.0085 -0.01446,0.01235 -0.02258,0.01235 h -0.0374 c -0.01376,0 -0.02081,-0.0025 -0.02081,-0.0081"
         style="fill:#000000;fill-opacity:1;fill-rule:nonzero;stroke:none;stroke-width:0.03527778"
         id="path2014"
         inkscape:connector-curvature="0" />
      <path
         d="m 66.038136,73.744912 c 0,-0.132292 0.04833,-0.242711 0.144992,-0.330906 0.09631,-0.08819 0.216252,-0.154869 0.359833,-0.200377 0.143228,-0.04551 0.291747,-0.07796 0.446264,-0.09737 0.154164,-0.01905 0.293511,-0.02858 0.417336,-0.02858 v -0.157339 c 0,-0.135114 -0.03775,-0.24518 -0.113242,-0.330553 -0.07585,-0.08537 -0.181328,-0.128058 -0.316441,-0.128058 -0.132292,0 -0.238478,0.0081 -0.318559,0.02434 0.05786,0.05256 0.08678,0.120297 0.08678,0.202847 0,0.07973 -0.02611,0.14605 -0.07832,0.198261 -0.05221,0.05256 -0.117122,0.07867 -0.19438,0.07867 -0.07691,0 -0.141817,-0.02681 -0.194028,-0.08043 -0.05256,-0.05397 -0.07867,-0.119239 -0.07867,-0.196497 0,-0.165453 0.07726,-0.27305 0.231422,-0.322439 0.154517,-0.04974 0.337609,-0.07444 0.549981,-0.07444 0.107244,0 0.214136,0.01023 0.320322,0.03104 0.105833,0.02046 0.205317,0.05503 0.297744,0.103364 0.09208,0.04798 0.166512,0.112183 0.223309,0.191911 0.05644,0.08008 0.08467,0.176389 0.08467,0.289631 v 0.983897 c 0,0.06879 0.09631,0.103364 0.289278,0.103364 0.03845,0.0081 0.06174,0.03034 0.0702,0.06597 v 0.07867 c -0.0085,0.0388 -0.03175,0.06209 -0.0702,0.0702 h -0.289278 c -0.110419,0 -0.20955,-0.01905 -0.297744,-0.05786 -0.08819,-0.03845 -0.132292,-0.104775 -0.132292,-0.198261 v -0.04939 c -0.06068,0.107244 -0.146755,0.189089 -0.258586,0.245533 -0.111477,0.0568 -0.232127,0.08502 -0.361597,0.08502 -0.20955,0 -0.398286,-0.0381 -0.566208,-0.113947 -0.168275,-0.0755 -0.252589,-0.204612 -0.252589,-0.386292 z m 0.512939,0 c 0,0.09349 0.03634,0.172155 0.109361,0.235655 0.07338,0.06315 0.158044,0.0949 0.254353,0.0949 0.08008,0 0.157691,-0.01658 0.233539,-0.04939 0.07585,-0.03316 0.137936,-0.08149 0.186266,-0.144638 0.04798,-0.0635 0.07197,-0.135114 0.07197,-0.215195 v -0.430036 c -0.121003,0 -0.246944,0.01658 -0.377825,0.04974 -0.131233,0.03316 -0.243416,0.08749 -0.337255,0.163337 -0.09349,0.07585 -0.140406,0.174272 -0.140406,0.295627"
         style="fill:#000000;fill-opacity:1;fill-rule:nonzero;stroke:none;stroke-width:0.03527778"
         id="path2016"
         inkscape:connector-curvature="0" />
      <path
         d="m 68.545327,75.278437 c -0.02469,0 -0.03704,-0.01235 -0.03704,-0.03704 0,-0.01094 0.0028,-0.01905 0.0085,-0.02469 0.482248,-0.471312 0.723195,-1.156406 0.723195,-2.054931 0,-0.898173 -0.238478,-1.580445 -0.715081,-2.046111 -0.01129,-0.0056 -0.01658,-0.01658 -0.01658,-0.03316 0,-0.01094 0.0035,-0.02011 0.01058,-0.02681 0.0067,-0.0071 0.01587,-0.01058 0.02646,-0.01058 h 0.0374 c 0.0085,0 0.01517,0.0028 0.02081,0.0085 0.203905,0.159809 0.373239,0.353837 0.508353,0.582789 0.135113,0.228953 0.233538,0.472722 0.295627,0.731661 0.06209,0.259292 0.09278,0.523875 0.09278,0.79375 0,0.198614 -0.01658,0.395111 -0.04939,0.589492 -0.03316,0.194028 -0.08678,0.385586 -0.161219,0.574322 -0.07444,0.188736 -0.168275,0.362656 -0.281164,0.521053 -0.113242,0.158397 -0.248003,0.299861 -0.404989,0.423686 -0.0056,0.0056 -0.01235,0.0081 -0.02081,0.0081 h -0.0374"
         style="fill:#000000;fill-opacity:1;fill-rule:nonzero;stroke:none;stroke-width:0.03527778"
         id="path2018"
         inkscape:connector-curvature="0" />
    </g>
  </g>
</svg>
