<?xml version="1.0" encoding="UTF-8" standalone="no"?>
<!-- Created with Inkscape (http://www.inkscape.org/) -->

<svg
   xmlns:dc="http://purl.org/dc/elements/1.1/"
   xmlns:cc="http://creativecommons.org/ns#"
   xmlns:rdf="http://www.w3.org/1999/02/22-rdf-syntax-ns#"
   xmlns:svg="http://www.w3.org/2000/svg"
   xmlns="http://www.w3.org/2000/svg"
   xmlns:sodipodi="http://sodipodi.sourceforge.net/DTD/sodipodi-0.dtd"
   xmlns:inkscape="http://www.inkscape.org/namespaces/inkscape"
   version="1.1"
   id="svg2"
   xml:space="preserve"
   width="210mm"
   height="120mm"
   viewBox="0 0 476.22047 272.12599"
   sodipodi:docname="dispersion.svg"
   inkscape:version="0.92.5 (2060ec1f9f, 2020-04-08)"
   inkscape:export-filename="/home/pfiborek/Documents/GITHub/model_hc/reports/figures/png/dispersion.png"
   inkscape:export-xdpi="600"
   inkscape:export-ydpi="600"><metadata
     id="metadata8"><rdf:RDF><cc:Work
         rdf:about=""><dc:format>image/svg+xml</dc:format><dc:type
           rdf:resource="http://purl.org/dc/dcmitype/StillImage" /><dc:title></dc:title></cc:Work></rdf:RDF></metadata><defs
     id="defs6"><clipPath
       clipPathUnits="userSpaceOnUse"
       id="clipPath20"><path
         d="M 0,0 H 1903.9999 V 1014 H 0 Z"
         id="path18"
         inkscape:connector-curvature="0" /></clipPath></defs><sodipodi:namedview
     pagecolor="#ffffff"
     bordercolor="#666666"
     borderopacity="1"
     objecttolerance="10"
     gridtolerance="10"
     guidetolerance="10"
     inkscape:pageopacity="0"
     inkscape:pageshadow="2"
     inkscape:window-width="1920"
     inkscape:window-height="948"
     id="namedview4"
     showgrid="false"
     units="mm"
     fit-margin-top="0.1"
     fit-margin-left="0.1"
     fit-margin-right="0.1"
     fit-margin-bottom="0.1"
     inkscape:zoom="0.5889784"
     inkscape:cx="334.25833"
     inkscape:cy="365.58742"
     inkscape:window-x="0"
     inkscape:window-y="27"
     inkscape:window-maximized="1"
     inkscape:current-layer="g10"
     scale-x="0.6"
     inkscape:document-units="mm" /><g
     id="g10"
     inkscape:groupmode="layer"
     inkscape:label="Dispersion"
     transform="matrix(1.3333333,0,0,-1.3333333,-27.169071,281.86441)"><text
       xml:space="preserve"
       style="font-style:normal;font-variant:normal;font-weight:normal;font-stretch:normal;font-size:6px;line-height:1.25;font-family:'TeX Gyre DejaVu Math';-inkscape-font-specification:'TeX Gyre DejaVu Math';letter-spacing:0px;word-spacing:0px;fill:#000000;fill-opacity:1;stroke:none;stroke-width:0.75"
       x="99.491661"
       y="30.052582"
       id="text1156"
       transform="matrix(0,1,1,0,0,0)"><tspan
         sodipodi:role="line"
         id="tspan1154"
         x="99.491661"
         y="30.052582"
         style="font-size:6px;stroke-width:0.75">c<tspan
   style="font-size:6px;baseline-shift:sub;stroke-width:0.75"
   id="tspan1162">p</tspan> [m/ms]</tspan></text>
<text
       xml:space="preserve"
       style="font-style:normal;font-variant:normal;font-weight:normal;font-stretch:normal;font-size:6px;line-height:1.25;font-family:'TeX Gyre DejaVu Math';-inkscape-font-specification:'TeX Gyre DejaVu Math';letter-spacing:0px;word-spacing:0px;fill:#000000;fill-opacity:1;stroke:none;stroke-width:0.75"
       x="178.36324"
       y="-9.2663765"
       id="text1160"
       transform="scale(1,-1)"><tspan
         sodipodi:role="line"
         id="tspan1158"
         x="178.36324"
         y="-9.2663765"
         style="font-size:6px;stroke-width:0.75">f × h [kHz × mm]  </tspan></text>
<path
       d="M 45.484506,25.379096 H 365.30789"
       style="fill:none;stroke:#262626;stroke-width:0.50000024;stroke-linecap:square;stroke-linejoin:round;stroke-miterlimit:10;stroke-dasharray:none;stroke-opacity:1"
       id="path34-9"
       inkscape:connector-curvature="0" /><path
       d="M 45.484506,204.4802 H 365.30789"
       style="fill:none;stroke:#262626;stroke-width:0.50000024;stroke-linecap:square;stroke-linejoin:round;stroke-miterlimit:10;stroke-dasharray:none;stroke-opacity:1"
       id="path38-4"
       inkscape:connector-curvature="0" /><path
       d="m 77.466845,25.379096 v 3.198231"
       style="fill:none;stroke:#262626;stroke-width:0.50000024;stroke-linecap:square;stroke-linejoin:round;stroke-miterlimit:10;stroke-dasharray:none;stroke-opacity:1"
       id="path46-7"
       inkscape:connector-curvature="0" /><path
       d="m 109.44918,25.379096 v 3.198231"
       style="fill:none;stroke:#262626;stroke-width:0.50000024;stroke-linecap:square;stroke-linejoin:round;stroke-miterlimit:10;stroke-dasharray:none;stroke-opacity:1"
       id="path50-8"
       inkscape:connector-curvature="0" /><path
       d="m 141.43152,25.379096 v 3.198231"
       style="fill:none;stroke:#262626;stroke-width:0.50000024;stroke-linecap:square;stroke-linejoin:round;stroke-miterlimit:10;stroke-dasharray:none;stroke-opacity:1"
       id="path54-4"
       inkscape:connector-curvature="0" /><path
       d="m 173.41386,25.379096 v 3.198231"
       style="fill:none;stroke:#262626;stroke-width:0.50000024;stroke-linecap:square;stroke-linejoin:round;stroke-miterlimit:10;stroke-dasharray:none;stroke-opacity:1"
       id="path58-5"
       inkscape:connector-curvature="0" /><path
       d="m 205.3962,25.379096 v 3.198231"
       style="fill:none;stroke:#262626;stroke-width:0.50000024;stroke-linecap:square;stroke-linejoin:round;stroke-miterlimit:10;stroke-dasharray:none;stroke-opacity:1"
       id="path62-0"
       inkscape:connector-curvature="0" /><path
       d="m 237.37854,25.379096 v 3.198231"
       style="fill:none;stroke:#262626;stroke-width:0.50000024;stroke-linecap:square;stroke-linejoin:round;stroke-miterlimit:10;stroke-dasharray:none;stroke-opacity:1"
       id="path66-3"
       inkscape:connector-curvature="0" /><path
       d="m 269.36088,25.379096 v 3.198231"
       style="fill:none;stroke:#262626;stroke-width:0.50000024;stroke-linecap:square;stroke-linejoin:round;stroke-miterlimit:10;stroke-dasharray:none;stroke-opacity:1"
       id="path70-6"
       inkscape:connector-curvature="0" /><path
       d="m 301.34321,25.379096 v 3.198231"
       style="fill:none;stroke:#262626;stroke-width:0.50000024;stroke-linecap:square;stroke-linejoin:round;stroke-miterlimit:10;stroke-dasharray:none;stroke-opacity:1"
       id="path74-1"
       inkscape:connector-curvature="0" /><path
       d="m 333.32555,25.379096 v 3.198231"
       style="fill:none;stroke:#262626;stroke-width:0.50000024;stroke-linecap:square;stroke-linejoin:round;stroke-miterlimit:10;stroke-dasharray:none;stroke-opacity:1"
       id="path78-0"
       inkscape:connector-curvature="0" /><path
       d="m 77.466845,204.4802 v -3.19824"
       style="fill:none;stroke:#262626;stroke-width:0.50000024;stroke-linecap:square;stroke-linejoin:round;stroke-miterlimit:10;stroke-dasharray:none;stroke-opacity:1"
       id="path90-6"
       inkscape:connector-curvature="0" /><path
       d="m 109.44918,204.4802 v -3.19824"
       style="fill:none;stroke:#262626;stroke-width:0.50000024;stroke-linecap:square;stroke-linejoin:round;stroke-miterlimit:10;stroke-dasharray:none;stroke-opacity:1"
       id="path94-3"
       inkscape:connector-curvature="0" /><path
       d="m 141.43152,204.4802 v -3.19824"
       style="fill:none;stroke:#262626;stroke-width:0.50000024;stroke-linecap:square;stroke-linejoin:round;stroke-miterlimit:10;stroke-dasharray:none;stroke-opacity:1"
       id="path98-2"
       inkscape:connector-curvature="0" /><path
       d="m 173.41386,204.4802 v -3.19824"
       style="fill:none;stroke:#262626;stroke-width:0.50000024;stroke-linecap:square;stroke-linejoin:round;stroke-miterlimit:10;stroke-dasharray:none;stroke-opacity:1"
       id="path102-0"
       inkscape:connector-curvature="0" /><path
       d="m 205.3962,204.4802 v -3.19824"
       style="fill:none;stroke:#262626;stroke-width:0.50000024;stroke-linecap:square;stroke-linejoin:round;stroke-miterlimit:10;stroke-dasharray:none;stroke-opacity:1"
       id="path106-6"
       inkscape:connector-curvature="0" /><path
       d="m 237.37854,204.4802 v -3.19824"
       style="fill:none;stroke:#262626;stroke-width:0.50000024;stroke-linecap:square;stroke-linejoin:round;stroke-miterlimit:10;stroke-dasharray:none;stroke-opacity:1"
       id="path110-1"
       inkscape:connector-curvature="0" /><path
       d="m 269.36088,204.4802 v -3.19824"
       style="fill:none;stroke:#262626;stroke-width:0.50000024;stroke-linecap:square;stroke-linejoin:round;stroke-miterlimit:10;stroke-dasharray:none;stroke-opacity:1"
       id="path114-5"
       inkscape:connector-curvature="0" /><path
       d="m 301.34321,204.4802 v -3.19824"
       style="fill:none;stroke:#262626;stroke-width:0.50000024;stroke-linecap:square;stroke-linejoin:round;stroke-miterlimit:10;stroke-dasharray:none;stroke-opacity:1"
       id="path118-5"
       inkscape:connector-curvature="0" /><path
       d="m 333.32555,204.4802 v -3.19824"
       style="fill:none;stroke:#262626;stroke-width:0.50000024;stroke-linecap:square;stroke-linejoin:round;stroke-miterlimit:10;stroke-dasharray:none;stroke-opacity:1"
       id="path122-4"
       inkscape:connector-curvature="0" /><path
       d="M 45.484506,25.379096 V 204.4802"
       style="fill:none;stroke:#262626;stroke-width:0.50000024;stroke-linecap:square;stroke-linejoin:round;stroke-miterlimit:10;stroke-dasharray:none;stroke-opacity:1"
       id="path334-7"
       inkscape:connector-curvature="0" /><path
       d="M 365.30789,25.379096 V 204.4802"
       style="fill:none;stroke:#262626;stroke-width:0.50000024;stroke-linecap:square;stroke-linejoin:round;stroke-miterlimit:10;stroke-dasharray:none;stroke-opacity:1"
       id="path338-6"
       inkscape:connector-curvature="0" /><path
       d="m 45.484506,43.289201 h 3.198241"
       style="fill:none;stroke:#262626;stroke-width:0.50000024;stroke-linecap:square;stroke-linejoin:round;stroke-miterlimit:10;stroke-dasharray:none;stroke-opacity:1"
       id="path346-5"
       inkscape:connector-curvature="0" /><path
       d="m 45.484506,61.199314 h 3.198241"
       style="fill:none;stroke:#262626;stroke-width:0.50000024;stroke-linecap:square;stroke-linejoin:round;stroke-miterlimit:10;stroke-dasharray:none;stroke-opacity:1"
       id="path350-6"
       inkscape:connector-curvature="0" /><path
       d="m 45.484506,79.109427 h 3.198241"
       style="fill:none;stroke:#262626;stroke-width:0.50000024;stroke-linecap:square;stroke-linejoin:round;stroke-miterlimit:10;stroke-dasharray:none;stroke-opacity:1"
       id="path354-9"
       inkscape:connector-curvature="0" /><path
       d="m 45.484506,97.01954 h 3.198241"
       style="fill:none;stroke:#262626;stroke-width:0.50000024;stroke-linecap:square;stroke-linejoin:round;stroke-miterlimit:10;stroke-dasharray:none;stroke-opacity:1"
       id="path358-3"
       inkscape:connector-curvature="0" /><path
       d="m 45.484506,114.92965 h 3.198241"
       style="fill:none;stroke:#262626;stroke-width:0.50000024;stroke-linecap:square;stroke-linejoin:round;stroke-miterlimit:10;stroke-dasharray:none;stroke-opacity:1"
       id="path362-7"
       inkscape:connector-curvature="0" /><path
       d="m 45.484506,132.83976 h 3.198241"
       style="fill:none;stroke:#262626;stroke-width:0.50000024;stroke-linecap:square;stroke-linejoin:round;stroke-miterlimit:10;stroke-dasharray:none;stroke-opacity:1"
       id="path366-4"
       inkscape:connector-curvature="0" /><path
       d="m 45.484506,150.74987 h 3.198241"
       style="fill:none;stroke:#262626;stroke-width:0.50000024;stroke-linecap:square;stroke-linejoin:round;stroke-miterlimit:10;stroke-dasharray:none;stroke-opacity:1"
       id="path370-5"
       inkscape:connector-curvature="0" /><path
       d="m 45.484506,168.65998 h 3.198241"
       style="fill:none;stroke:#262626;stroke-width:0.50000024;stroke-linecap:square;stroke-linejoin:round;stroke-miterlimit:10;stroke-dasharray:none;stroke-opacity:1"
       id="path374-2"
       inkscape:connector-curvature="0" /><path
       d="m 45.484506,186.57009 h 3.198241"
       style="fill:none;stroke:#262626;stroke-width:0.50000024;stroke-linecap:square;stroke-linejoin:round;stroke-miterlimit:10;stroke-dasharray:none;stroke-opacity:1"
       id="path378-5"
       inkscape:connector-curvature="0" /><path
       d="m 365.30789,43.289201 h -3.19824"
       style="fill:none;stroke:#262626;stroke-width:0.50000024;stroke-linecap:square;stroke-linejoin:round;stroke-miterlimit:10;stroke-dasharray:none;stroke-opacity:1"
       id="path390-4"
       inkscape:connector-curvature="0" /><path
       d="m 365.30789,61.199314 h -3.19824"
       style="fill:none;stroke:#262626;stroke-width:0.50000024;stroke-linecap:square;stroke-linejoin:round;stroke-miterlimit:10;stroke-dasharray:none;stroke-opacity:1"
       id="path394-7"
       inkscape:connector-curvature="0" /><path
       d="m 365.30789,79.109427 h -3.19824"
       style="fill:none;stroke:#262626;stroke-width:0.50000024;stroke-linecap:square;stroke-linejoin:round;stroke-miterlimit:10;stroke-dasharray:none;stroke-opacity:1"
       id="path398-4"
       inkscape:connector-curvature="0" /><path
       d="m 365.30789,97.01954 h -3.19824"
       style="fill:none;stroke:#262626;stroke-width:0.50000024;stroke-linecap:square;stroke-linejoin:round;stroke-miterlimit:10;stroke-dasharray:none;stroke-opacity:1"
       id="path402-4"
       inkscape:connector-curvature="0" /><path
       d="m 365.30789,114.92965 h -3.19824"
       style="fill:none;stroke:#262626;stroke-width:0.50000024;stroke-linecap:square;stroke-linejoin:round;stroke-miterlimit:10;stroke-dasharray:none;stroke-opacity:1"
       id="path406-3"
       inkscape:connector-curvature="0" /><path
       d="m 365.30789,132.83976 h -3.19824"
       style="fill:none;stroke:#262626;stroke-width:0.50000024;stroke-linecap:square;stroke-linejoin:round;stroke-miterlimit:10;stroke-dasharray:none;stroke-opacity:1"
       id="path410-0"
       inkscape:connector-curvature="0" /><path
       d="m 365.30789,150.74987 h -3.19824"
       style="fill:none;stroke:#262626;stroke-width:0.50000024;stroke-linecap:square;stroke-linejoin:round;stroke-miterlimit:10;stroke-dasharray:none;stroke-opacity:1"
       id="path414-7"
       inkscape:connector-curvature="0" /><path
       d="m 365.30789,168.65998 h -3.19824"
       style="fill:none;stroke:#262626;stroke-width:0.50000024;stroke-linecap:square;stroke-linejoin:round;stroke-miterlimit:10;stroke-dasharray:none;stroke-opacity:1"
       id="path418-8"
       inkscape:connector-curvature="0" /><path
       d="m 365.30789,186.57009 h -3.19824"
       style="fill:none;stroke:#262626;stroke-width:0.50000024;stroke-linecap:square;stroke-linejoin:round;stroke-miterlimit:10;stroke-dasharray:none;stroke-opacity:1"
       id="path422-6"
       inkscape:connector-curvature="0" /><path
       d="m 45.484667,85.356333 1.598959,-0.0028 1.599121,-0.0038 1.59911,-0.0057 1.599121,-0.0076 1.59911,-0.01015 1.599121,-0.01243 1.59912,-0.0147 1.599111,-0.01698 1.59912,-0.01926 1.599111,-0.02163 1.59912,-0.0239 1.59912,-0.02627 1.599111,-0.02855 1.59912,-0.03102 1.599121,-0.03339 1.59911,-0.03585 1.599121,-0.03842 1.59912,-0.04069 1.599111,-0.04335 1.59912,-0.04582 1.59912,-0.04856 1.599111,-0.05103 1.59912,-0.05369 1.599121,-0.05653 1.59911,-0.05919 1.599121,-0.06194 1.59912,-0.06497 1.599111,-0.06763 1.59912,-0.07086 1.59912,-0.0737 1.599111,-0.07674 1.599117,-0.07987 1.599111,-0.08319 1.59913,-0.0866 1.599112,-0.08973 1.59912,-0.09334 1.59911,-0.09675 1.59912,-0.10045 1.59912,-0.104055 1.59911,-0.108019 1.59912,-0.11189 1.59911,-0.11594 1.59912,-0.120113 1.59912,-0.124439 1.59911,-0.128782 1.59912,-0.133403 1.59911,-0.138221 1.59912,-0.1432 1.59912,-0.147792 1.59912,-0.153265 1.59912,-0.158785 1.59912,-0.164286 1.59911,-0.170197 1.59912,-0.176342 1.59911,-0.182613 1.59912,-0.189242 1.59912,-0.196177 1.59911,-0.203338 1.59912,-0.210869 1.59912,-0.218685 1.59912,-0.227204 1.59911,-0.235597 1.59912,-0.245017 1.59912,-0.254483 1.59911,-0.264633 1.59912,-0.275455 1.59911,-0.286771 1.59912,-0.298789 1.59912,-0.311595 1.59912,-0.325595 1.59911,-0.33987 1.59913,-0.355436 1.59912,-0.372235 1.59911,-0.39038 1.59912,-0.409664 1.59911,-0.430854 1.59912,-0.453553 1.59912,-0.478793 1.59911,-0.506007 1.59912,-0.53616 1.59912,-0.569161 1.59911,-0.60585 1.59912,-0.646703 1.59911,-0.693096 1.59912,-0.744611 1.59912,-0.803582 1.59911,-0.86962 1.59912,-0.946156 1.59911,-1.033166 1.59913,-1.133284 1.59911,-1.245752 1.59912,-1.370077 1.59911,-1.501672 1.59913,-1.624959 1.59912,-1.716979 1.59911,-1.744647 1.59912,-1.688101 1.59911,-1.554333 1.59913,-1.377564 1.59911,-1.194136 1.59912,-1.025735 1.59911,-0.882057 1.59912,-0.761567 1.59912,-0.662408 1.59911,-0.580762 1.59912,-0.512863 1.59911,-0.455968 1.59913,-0.408289 1.59911,-0.36766 1.59912,-0.33303 1.59911,-0.303117 1.59912,-0.277039 1.59912,-0.254315 1.59911,-0.234257 1.59912,-0.216618 1.59912,-0.200829 1.59912,-0.186735 1.59912,-0.174138 1.59911,-0.162674 1.59912,-0.152385 1.59911,-0.143081 1.59912,-0.134394 1.59912,-0.126898 1.59911,-0.119456 1.59912,-0.113099 1.59912,-0.106797 1.59911,-0.101367 1.59912,-0.09632 1.59911,-0.09144 1.59913,-0.087 1.59911,-0.08285 1.59912,-0.07897 1.59911,-0.07536 1.59912,-0.07201 1.59912,-0.06885 1.59911,-0.06591 1.59912,-0.06309 1.59912,-0.06049 1.59912,-0.05802 1.59912,-0.05563 1.59912,-0.05353 1.59911,-0.05134 1.59912,-0.04937 1.59912,-0.04754 1.59911,-0.04585 1.59912,-0.0441 1.59912,-0.04255 1.59911,-0.041 1.59912,-0.03959 1.59912,-0.03826 1.59911,-0.03693 1.59912,-0.03566 1.59911,-0.03446 1.59912,-0.03334 1.59911,-0.03221 1.59912,-0.03123 1.59912,-0.03032 1.59911,-0.02925 1.59912,-0.02834 1.59912,-0.0275 1.59912,-0.02672 1.59912,-0.02589 1.59911,-0.02511 1.59913,-0.02441 1.59911,-0.0237 1.59912,-0.023 1.59911,-0.02229 1.59912,-0.02173 1.59912,-0.0211 1.59912,-0.02054 1.59911,-0.0199 1.59912,-0.01941 1.59912,-0.01885 1.59911,-0.01843 1.59912,-0.01794 1.59911,-0.01744 1.59913,-0.01695 1.59911,-0.0166 1.59912,-0.01617 1.59911,-0.01568 1.59912,-0.01533 1.59912,-0.01498 1.59911,-0.01456 1.59913,-0.01421 1.59911,-0.01386 1.59912,-0.01357 1.59912,-0.01322 1.59911,-0.01294 1.59912,-0.01259 1.59911,-0.0123 1.59912,-0.01203 1.59911,-0.01174 1.59912,-0.01147 1.59912,-0.01125 1.59912,-0.01098 1.59911,-0.01076 1.59912,-0.01048 1.59911,-0.01026 1.59912,-0.01005 1.59912,-0.0098"
       style="fill:none;stroke:#ff0000;stroke-width:1;stroke-linecap:butt;stroke-linejoin:round;stroke-miterlimit:10;stroke-dasharray:none;stroke-opacity:1"
       id="path750-8"
       inkscape:connector-curvature="0" /><path
       d="m 231.41373,204.50155 -0.002,-0.64723 -0.003,-0.89551 -0.003,-0.89551 -0.003,-0.89551 -0.003,-0.8955 -0.003,-0.8955 -0.003,-0.8955 -0.003,-0.89551 -0.003,-0.89551 -0.002,-0.89551 -0.003,-0.89549 -0.002,-0.89551 -0.002,-0.89551 -0.002,-0.89551 -0.002,-0.89551 -0.002,-0.89549 -0.002,-0.89551 -0.002,-0.89551 -0.002,-0.89551 -0.002,-0.89551 -0.002,-0.89549 -0.002,-0.89551 -0.002,-0.8955 -0.002,-0.89551 v -0.89551 -0.8955 -0.8955 -0.89551 -0.89551 -0.89552 -0.89548 l 1.1e-4,-0.89552 v -0.8955 -0.89551 -0.89551 -0.89549 l 0.002,-0.89551 0.002,-0.89551 0.002,-0.89551 0.002,-0.8955 0.002,-0.89551 0.003,-0.8955 0.003,-0.8955 0.004,-0.89551 0.004,-0.8955 0.004,-0.89551 0.004,-0.89552 0.005,-0.89549 0.005,-0.89551 0.006,-0.8955 0.006,-0.89551 0.007,-0.89551 0.007,-0.89549 0.008,-0.89552 0.008,-0.8955 0.009,-0.89551 0.009,-0.8955 0.01,-0.89551 0.0101,-0.8955 0.0108,-0.89551 0.0115,-0.8955 0.0124,-0.89552 0.0132,-0.89549 0.0139,-0.89551 0.015,-0.8955 0.0158,-0.89551 0.0168,-0.89551 0.0175,-0.8955 0.0187,-0.89551 0.0199,-0.8955 0.0209,-0.89552 0.0222,-0.8955 0.0235,-0.8955 0.0249,-0.89551 0.0262,-0.89551 0.0277,-0.8955 0.0292,-0.89551 0.0309,-0.8955 0.0327,-0.8955 0.0344,-0.8955 0.0363,-0.89551 0.0384,-0.89552 0.0406,-0.89549 0.0428,-0.89551 0.0452,-0.8955 0.0477,-0.89551 0.0503,-0.89551 0.0531,-0.89551 0.0561,-0.8955 0.0592,-0.8955 0.0624,-0.89551 0.0659,-0.8955 0.0696,-0.89551 1.59912,-13.01719 1.59911,-6.98275 1.59912,-4.7227 1.59912,-3.54588 1.59913,-2.83092 1.59911,-2.3545 1.59912,-2.016297 1.59911,-1.765218 1.59912,-1.571888 1.59912,-1.418889 1.59912,-1.294839 1.59911,-1.192103 1.59912,-1.105805 1.59912,-1.032018 1.59911,-0.96803 1.59912,-0.911924 1.59911,-0.862334 1.59913,-0.817905 1.59911,-0.777772 1.59912,-0.741282 1.59911,-0.707903 1.59912,-0.677237 1.59912,-0.648723 1.59911,-0.622326 1.59912,-0.597636 1.59911,-0.574434 1.59912,-0.552684 1.59913,-0.532215 1.59911,-0.512798 1.59912,-0.494473 1.59912,-0.477105 1.59911,-0.460534 1.59912,-0.444816 1.59911,-0.429878 1.59912,-0.415535 1.59912,-0.40199 1.59911,-0.3889 1.59912,-0.376513 1.59911,-0.36458 1.59912,-0.353169 1.59912,-0.342277 1.59911,-0.331826 1.59912,-0.32177 1.59912,-0.312155 1.59912,-0.302969 1.59911,-0.294094 1.59912,-0.285528 1.59911,-0.277419 1.59913,-0.269507 1.59912,-0.262016 1.59912,-0.254717 1.59911,-0.247731 1.59912,-0.240967 1.59912,-0.234539 1.59911,-0.228306 1.59912,-0.222308 1.59912,-0.216541 1.59912,-0.210921 1.59911,-0.205597 1.59912,-0.200379 1.59911,-0.195399 1.59912,-0.190567 1.59912,-0.185961 1.59911,-0.181439 1.59912,-0.177092 1.59911,-0.172929 1.59912,-0.16892 1.59912,-0.16501 1.59911,-0.16119 1.59912,-0.157575 1.59911,-0.154039 1.59913,-0.150613 1.59911,-0.14737 1.59912,-0.144114 1.59912,-0.141119 1.59912,-0.138009 1.59911,-0.135253 1.59912,-0.132368 1.59912,-0.129733 1.59911,-0.127037 1.59912,-0.124492 1.59911,-0.122052 1.59912,-0.119689"
       style="fill:none;stroke:#ff0000;stroke-width:1;stroke-linecap:butt;stroke-linejoin:round;stroke-miterlimit:10;stroke-dasharray:none;stroke-opacity:1"
       id="path762-8"
       inkscape:connector-curvature="0" /><path
       d="m 281.11483,204.50155 0.13752,-0.7219 0.17371,-0.89552 0.17691,-0.8955 0.18024,-0.8955 0.18354,-0.89552 0.18706,-0.89549 1.59912,-7.02618 1.59912,-6.06877 1.59911,-5.30147 1.59912,-4.6755 1.59911,-4.15767 1.59912,-3.7235 1.59911,-3.35569 1.59912,-3.04107 1.59912,-2.76949 1.59911,-2.53355 1.59912,-2.32694 1.59912,-2.14508 1.59912,-1.98398 1.59912,-1.8406 1.59911,-1.71248 1.59913,-1.59749 1.59911,-1.4937 1.59912,-1.39997 1.59911,-1.31477 1.59912,-1.23737 1.59912,-1.16653 1.59912,-1.1018 1.59911,-1.04228 1.59912,-0.98762 1.59912,-0.93723 1.59911,-0.89058 1.59912,-0.84746 1.59911,-0.80739 1.59913,-0.77028 1.59911,-0.73569 1.59912,-0.70338 1.59911,-0.67328 1.59912,-0.64515 1.59912,-0.61869 1.59911,-0.59407 1.59913,-0.5709 1.59911,-0.54904 1.59912,-0.5286 1.59912,-0.50924 1.59911,-0.49106 1.59912,-0.47384 1.59911,-0.45768 1.59912,-0.44234 1.59911,-0.42785 1.59912,-0.41412 1.59912,-0.40106 1.59912,-0.38877 1.59911,-0.37705 1.59912,-0.36594 1.59911,-0.35537 1.59912,-0.34534 1.59912,-0.33586"
       style="fill:none;stroke:#ff0000;stroke-width:1;stroke-linecap:butt;stroke-linejoin:round;stroke-miterlimit:10;stroke-dasharray:none;stroke-opacity:1"
       id="path766-4"
       inkscape:connector-curvature="0" /><path
       d="m 45.484667,25.379096 1.598959,3.459939 1.599121,1.311326 1.59911,0.9278 1.599121,0.720938 1.59911,0.586113 1.599121,0.485098 1.59912,0.413325 1.599111,0.353784 1.59912,0.30662 1.599111,0.265765 1.59912,0.234215 1.59912,0.206427 1.599111,0.183957 1.59912,0.163919 1.599121,0.146871 1.59911,0.13232 1.599121,0.119843 1.59912,0.109146 1.599111,0.09884 1.59912,0.09098 1.59912,0.0833 1.599111,0.07668 1.59912,0.0713 1.599121,0.06597 1.59911,0.0614 1.599121,0.05739 1.59912,0.05366 1.599111,0.05015 1.59912,0.04741 1.59912,0.04459 1.599111,0.04206 1.599117,0.03981 1.599111,0.03777 1.59913,0.03586 1.599112,0.03411 1.59912,0.03256 1.59911,0.03088 1.59912,0.02968 1.59912,0.02828 1.59911,0.02715 1.59912,0.02609 1.59911,0.02482 1.59912,0.02398 1.59912,0.023 1.59911,0.02222 1.59912,0.02138 1.59911,0.02054 1.59912,0.0199 1.59912,0.01913 1.59912,0.0185 1.59912,0.01794 1.59912,0.01723 1.59911,0.01681 1.59912,0.01617 1.59911,0.01569 1.59912,0.0152 1.59912,0.0147 1.59911,0.01428 1.59912,0.01378 1.59912,0.01343 1.59912,0.01308 1.59911,0.01266 1.59912,0.01231 1.59912,0.01203 1.59911,0.01168 1.59912,0.01133 1.59911,0.01112 1.59912,0.01069 1.59912,0.01048 1.59912,0.0102 1.59911,0.01 1.59913,0.0096 1.59912,0.0094 1.59911,0.0091 1.59912,0.0089 1.59911,0.0088 1.59912,0.0085 1.59912,0.0083 1.59911,0.0081 1.59912,0.008 1.59912,0.0078 1.59911,0.0075 1.59912,0.0074 1.59911,0.0072 1.59912,0.007 1.59912,0.007 1.59911,0.007 1.59912,0.0064 1.59911,0.0064 1.59913,0.0064 1.59911,0.0064 1.59912,0.0064 1.59911,0.0056 1.59913,0.0056 1.59912,0.0056 1.59911,0.0056 1.59912,0.0056 1.59911,0.0056 1.59913,0.0056 1.59911,0.0056 1.59912,0.0049 1.59911,0.0049 1.59912,0.0049 1.59912,0.0049 1.59911,0.0049 1.59912,0.0049 1.59911,0.0042 1.59913,0.0042 1.59911,0.0042 1.59912,0.0042 1.59911,0.0042 1.59912,0.0042 1.59912,0.0042 1.59911,0.0035 1.59912,0.0035 1.59912,0.0035 1.59912,0.0035 1.59912,0.0035 1.59911,0.0035 1.59912,0.0035 1.59911,0.0035 1.59912,0.0035 1.59912,0.0035 1.59911,0.0035 1.59912,0.0035 1.59912,0.0035 1.59911,0.0035 1.59912,0.0035 1.59911,0.0035 1.59913,0.0035 1.59911,0.0028 1.59912,0.0028 1.59911,0.0028 1.59912,0.0028 1.59912,0.0028 1.59911,0.0028 1.59912,0.0028 1.59912,0.0028 1.59912,0.0028 1.59912,0.0028 1.59912,0.0028 1.59911,0.0028 1.59912,0.0021 1.59912,0.0021 1.59911,0.0021 1.59912,0.0021 1.59912,0.0021 1.59911,0.0021 1.59912,0.0021 1.59912,0.0021 1.59911,0.0021 1.59912,0.0021 1.59911,0.0021 1.59912,0.0021 1.59911,0.0021 1.59912,0.0021 1.59912,0.0014 1.59911,0.0014 1.59912,0.0014 1.59912,0.0014 1.59912,0.0014 1.59912,0.0014 1.59911,0.0014 1.59913,0.0014 1.59911,0.0014 1.59912,0.0014 1.59911,0.0014 1.59912,0.0014 1.59912,0.0014 1.59912,0.0014 1.59911,0.0014 1.59912,0.0014 1.59912,7.03e-4 1.59911,7.03e-4 1.59912,0.0014 1.59911,7.03e-4 1.59913,7.04e-4 1.59911,0.0014 1.59912,7.03e-4 1.59911,7.03e-4 1.59912,7.04e-4 1.59912,0.0014 1.59911,7.03e-4 1.59913,7.04e-4 1.59911,0.0014 1.59912,7.03e-4 1.59912,7.04e-4 1.59911,0.0014 1.59912,7.03e-4 1.59911,7.03e-4 1.59912,0.0014 1.59911,7.04e-4 1.59912,7.03e-4 1.59912,0.0014 1.59912,7.04e-4 1.59911,7.03e-4 1.59912,7.03e-4 1.59911,0.0014 1.59912,7.03e-4 1.59912,5.27e-4"
       style="fill:none;stroke:#0000ff;stroke-width:1;stroke-linecap:butt;stroke-linejoin:round;stroke-miterlimit:10;stroke-dasharray:none;stroke-opacity:1"
       id="path770-3"
       inkscape:connector-curvature="0" /><path
       d="m 162.12757,204.50155 0.0925,-0.6793 1.59912,-10.43004 1.59912,-8.49006 1.59911,-7.07089 1.59912,-5.99684 1.59912,-5.16156 1.59911,-4.49732 1.59912,-3.95915 1.59912,-3.5164 1.59911,-3.14711 1.59912,-2.83546 1.59911,-2.56994 1.59912,-2.34154 1.59912,-2.14344 1.59911,-1.97062 1.59912,-1.81864 1.59911,-1.68444 1.59913,-1.56513 1.59911,-1.45858 1.59912,-1.36323 1.59911,-1.27721 1.59912,-1.19962 1.59912,-1.12924 1.59912,-1.06524 1.59912,-1.00683 1.59911,-0.95346 1.59913,-0.90452 1.59911,-0.85956 1.59912,-0.81814 1.59911,-0.77997 1.59912,-0.74466 1.59912,-0.71189 1.59911,-0.68159 1.59912,-0.65341 1.59911,-0.6272 1.59913,-0.6028 1.59911,-0.58007 1.59912,-0.55876 1.59911,-0.53896 1.59912,-0.52038 1.59912,-0.50295 1.59911,-0.48673 1.59912,-0.47145 1.59911,-0.45719 1.59912,-0.44373 1.59913,-0.43119 1.59911,-0.41931 1.59912,-0.40829 1.59911,-0.3978 1.59912,-0.38813 1.59912,-0.37889 1.59911,-0.37032 1.59912,-0.36225 1.59912,-0.35469 1.59911,-0.34762 1.59912,-0.34101 1.59911,-0.33489 1.59913,-0.32912 1.59911,-0.32377 1.59912,-0.31878 1.59911,-0.31421 1.59912,-0.31 1.59912,-0.30614 1.59911,-0.30256 1.59912,-0.2993 1.59912,-0.29641 1.59912,-0.29383 1.59912,-0.29148 1.59912,-0.28949 1.59911,-0.28776 1.59912,-0.28638 1.59912,-0.28517 1.59911,-0.28435 1.59912,-0.28369 1.59912,-0.2835 1.59911,-0.28337 1.59912,-0.28362 1.59912,-0.2842 1.59911,-0.28504 1.59912,-0.28615 1.59911,-0.28753 1.59912,-0.28927 1.59911,-0.29124 1.59912,-0.29364 1.59912,-0.2962 1.59911,-0.29919 1.59912,-0.30254 1.59912,-0.30626 1.59911,-0.31022 1.59913,-0.31473 1.59911,-0.3195 1.59913,-0.3248 1.59911,-0.33046 1.59912,-0.33661 1.59911,-0.3432 1.59912,-0.35033 1.59912,-0.35808 1.59912,-0.36622 1.59911,-0.37511 1.59912,-0.38461 1.59912,-0.39471 1.59911,-0.40561 1.59912,-0.417268 1.59911,-0.429735 1.59913,-0.443005 1.59911,-0.457281 1.59912,-0.472589 1.59911,-0.488943 1.59912,-0.506386 1.59912,-0.525158 1.59911,-0.545153 1.59912,-0.566687 1.59912,-0.58964 1.59912,-0.614329 1.59912,-0.640643 1.59911,-0.66906 1.59912,-0.699262 1.59911,-0.731825 1.59912,-0.766503 1.59911,-0.803772 1.59912,-0.843468 1.59912,-0.885849 1.59912,-0.93097 1.59911,-0.978891 1.59912,-1.029504 1.59911,-1.082585 1.59912,-1.137932 1.59912,-1.194882"
       style="fill:none;stroke:#0000ff;stroke-width:1;stroke-linecap:butt;stroke-linejoin:round;stroke-miterlimit:10;stroke-dasharray:none;stroke-opacity:1"
       id="path782-1"
       inkscape:connector-curvature="0" /><text
       xml:space="preserve"
       style="font-style:normal;font-variant:normal;font-weight:normal;font-stretch:normal;font-size:6px;line-height:1.25;font-family:'TeX Gyre DejaVu Math';-inkscape-font-specification:'TeX Gyre DejaVu Math';letter-spacing:0px;word-spacing:0px;fill:#000000;fill-opacity:1;stroke:none;stroke-width:0.75"
       x="39.189915"
       y="-23.195095"
       id="text1662"
       transform="scale(1,-1)"><tspan
         sodipodi:role="line"
         id="tspan1660"
         x="39.189915"
         y="-23.195095"
         style="font-size:6px;stroke-width:0.75">0</tspan></text>
<text
       xml:space="preserve"
       style="font-style:normal;font-variant:normal;font-weight:normal;font-stretch:normal;font-size:6px;line-height:1.25;font-family:'TeX Gyre DejaVu Math';-inkscape-font-specification:'TeX Gyre DejaVu Math';letter-spacing:0px;word-spacing:0px;fill:#000000;fill-opacity:1;stroke:none;stroke-width:0.75"
       x="39.351963"
       y="-41.063202"
       id="text1666"
       transform="scale(1,-1)"><tspan
         sodipodi:role="line"
         id="tspan1664"
         x="39.351963"
         y="-41.063202"
         style="font-size:6px;stroke-width:0.75">2</tspan></text>
<text
       xml:space="preserve"
       style="font-style:normal;font-variant:normal;font-weight:normal;font-stretch:normal;font-size:6px;line-height:1.25;font-family:'TeX Gyre DejaVu Math';-inkscape-font-specification:'TeX Gyre DejaVu Math';letter-spacing:0px;word-spacing:0px;fill:#000000;fill-opacity:1;stroke:none;stroke-width:0.75"
       x="39.108902"
       y="-58.973312"
       id="text1670"
       transform="scale(1,-1)"><tspan
         sodipodi:role="line"
         id="tspan1668"
         x="39.108902"
         y="-58.973312"
         style="font-size:6px;stroke-width:0.75">4</tspan></text>
<text
       xml:space="preserve"
       style="font-style:normal;font-variant:normal;font-weight:normal;font-stretch:normal;font-size:6px;line-height:1.25;font-family:'TeX Gyre DejaVu Math';-inkscape-font-specification:'TeX Gyre DejaVu Math';letter-spacing:0px;word-spacing:0px;fill:#000000;fill-opacity:1;stroke:none;stroke-width:0.75"
       x="39.174728"
       y="-76.92543"
       id="text1674"
       transform="scale(1,-1)"><tspan
         sodipodi:role="line"
         id="tspan1672"
         x="39.174728"
         y="-76.92543"
         style="font-size:6px;stroke-width:0.75">6</tspan></text>
<text
       xml:space="preserve"
       style="font-style:normal;font-variant:normal;font-weight:normal;font-stretch:normal;font-size:6px;line-height:1.25;font-family:'TeX Gyre DejaVu Math';-inkscape-font-specification:'TeX Gyre DejaVu Math';letter-spacing:0px;word-spacing:0px;fill:#000000;fill-opacity:1;stroke:none;stroke-width:0.75"
       x="39.194981"
       y="-94.835541"
       id="text1678"
       transform="scale(1,-1)"><tspan
         sodipodi:role="line"
         id="tspan1676"
         x="39.194981"
         y="-94.835541"
         style="font-size:6px;stroke-width:0.75">8</tspan></text>
<text
       xml:space="preserve"
       style="font-style:normal;font-variant:normal;font-weight:normal;font-stretch:normal;font-size:6px;line-height:1.25;font-family:'TeX Gyre DejaVu Math';-inkscape-font-specification:'TeX Gyre DejaVu Math';letter-spacing:0px;word-spacing:0px;fill:#000000;fill-opacity:1;stroke:none;stroke-width:0.75"
       x="35.969345"
       y="-112.74565"
       id="text1682"
       transform="scale(1,-1)"><tspan
         sodipodi:role="line"
         id="tspan1680"
         x="35.969345"
         y="-112.74565"
         style="font-size:6px;stroke-width:0.75">10</tspan></text>
<text
       xml:space="preserve"
       style="font-style:normal;font-variant:normal;font-weight:normal;font-stretch:normal;font-size:6px;line-height:1.25;font-family:'TeX Gyre DejaVu Math';-inkscape-font-specification:'TeX Gyre DejaVu Math';letter-spacing:0px;word-spacing:0px;fill:#000000;fill-opacity:1;stroke:none;stroke-width:0.75"
       x="36.13139"
       y="-130.61375"
       id="text1686"
       transform="scale(1,-1)"><tspan
         sodipodi:role="line"
         id="tspan1684"
         x="36.13139"
         y="-130.61375"
         style="font-size:6px;stroke-width:0.75">12</tspan></text>
<text
       xml:space="preserve"
       style="font-style:normal;font-variant:normal;font-weight:normal;font-stretch:normal;font-size:6px;line-height:1.25;font-family:'TeX Gyre DejaVu Math';-inkscape-font-specification:'TeX Gyre DejaVu Math';letter-spacing:0px;word-spacing:0px;fill:#000000;fill-opacity:1;stroke:none;stroke-width:0.75"
       x="35.888325"
       y="-148.52386"
       id="text1690"
       transform="scale(1,-1)"><tspan
         sodipodi:role="line"
         id="tspan1688"
         x="35.888325"
         y="-148.52386"
         style="font-size:6px;stroke-width:0.75">14</tspan></text>
<text
       xml:space="preserve"
       style="font-style:normal;font-variant:normal;font-weight:normal;font-stretch:normal;font-size:6px;line-height:1.25;font-family:'TeX Gyre DejaVu Math';-inkscape-font-specification:'TeX Gyre DejaVu Math';letter-spacing:0px;word-spacing:0px;fill:#000000;fill-opacity:1;stroke:none;stroke-width:0.75"
       x="35.954155"
       y="-166.47598"
       id="text1694"
       transform="scale(1,-1)"><tspan
         sodipodi:role="line"
         id="tspan1692"
         x="35.954155"
         y="-166.47598"
         style="font-size:6px;stroke-width:0.75">16</tspan></text>
<text
       xml:space="preserve"
       style="font-style:normal;font-variant:normal;font-weight:normal;font-stretch:normal;font-size:6px;line-height:1.25;font-family:'TeX Gyre DejaVu Math';-inkscape-font-specification:'TeX Gyre DejaVu Math';letter-spacing:0px;word-spacing:0px;fill:#000000;fill-opacity:1;stroke:none;stroke-width:0.75"
       x="35.974411"
       y="-184.38609"
       id="text1698"
       transform="scale(1,-1)"><tspan
         sodipodi:role="line"
         id="tspan1696"
         x="35.974411"
         y="-184.38609"
         style="font-size:6px;stroke-width:0.75">18</tspan></text>
<text
       xml:space="preserve"
       style="font-style:normal;font-variant:normal;font-weight:normal;font-stretch:normal;font-size:6px;line-height:1.25;font-family:'TeX Gyre DejaVu Math';-inkscape-font-specification:'TeX Gyre DejaVu Math';letter-spacing:0px;word-spacing:0px;fill:#000000;fill-opacity:1;stroke:none;stroke-width:0.75"
       x="35.969345"
       y="-202.2962"
       id="text1702"
       transform="scale(1,-1)"><tspan
         sodipodi:role="line"
         id="tspan1700"
         x="35.969345"
         y="-202.2962"
         style="font-size:6px;stroke-width:0.75">20</tspan></text>
<text
       xml:space="preserve"
       style="font-style:normal;font-variant:normal;font-weight:normal;font-stretch:normal;font-size:6px;line-height:1.25;font-family:'TeX Gyre DejaVu Math';-inkscape-font-specification:'TeX Gyre DejaVu Math';letter-spacing:0px;word-spacing:0px;fill:#000000;fill-opacity:1;stroke:none;stroke-width:0.75"
       x="71.736847"
       y="-17.87483"
       id="text1706"
       transform="scale(1,-1)"><tspan
         sodipodi:role="line"
         id="tspan1704"
         x="71.736847"
         y="-17.87483"
         style="font-size:6px;stroke-width:0.75">200</tspan></text>
<text
       xml:space="preserve"
       style="font-style:normal;font-variant:normal;font-weight:normal;font-stretch:normal;font-size:6px;line-height:1.25;font-family:'TeX Gyre DejaVu Math';-inkscape-font-specification:'TeX Gyre DejaVu Math';letter-spacing:0px;word-spacing:0px;fill:#000000;fill-opacity:1;stroke:none;stroke-width:0.75"
       x="103.83018"
       y="-17.87483"
       id="text1710"
       transform="scale(1,-1)"><tspan
         sodipodi:role="line"
         id="tspan1708"
         x="103.83018"
         y="-17.87483"
         style="font-size:6px;stroke-width:0.75">400</tspan></text>
<text
       xml:space="preserve"
       style="font-style:normal;font-variant:normal;font-weight:normal;font-stretch:normal;font-size:6px;line-height:1.25;font-family:'TeX Gyre DejaVu Math';-inkscape-font-specification:'TeX Gyre DejaVu Math';letter-spacing:0px;word-spacing:0px;fill:#000000;fill-opacity:1;stroke:none;stroke-width:0.75"
       x="135.70453"
       y="-17.87483"
       id="text1714"
       transform="scale(1,-1)"><tspan
         sodipodi:role="line"
         id="tspan1712"
         x="135.70453"
         y="-17.87483"
         style="font-size:6px;stroke-width:0.75">600</tspan></text>
<text
       xml:space="preserve"
       style="font-style:normal;font-variant:normal;font-weight:normal;font-stretch:normal;font-size:6px;line-height:1.25;font-family:'TeX Gyre DejaVu Math';-inkscape-font-specification:'TeX Gyre DejaVu Math';letter-spacing:0px;word-spacing:0px;fill:#000000;fill-opacity:1;stroke:none;stroke-width:0.75"
       x="167.68686"
       y="-17.87483"
       id="text1718"
       transform="scale(1,-1)"><tspan
         sodipodi:role="line"
         id="tspan1716"
         x="167.68686"
         y="-17.87483"
         style="font-size:6px;stroke-width:0.75">800</tspan></text>
<text
       xml:space="preserve"
       style="font-style:normal;font-variant:normal;font-weight:normal;font-stretch:normal;font-size:6px;line-height:1.25;font-family:'TeX Gyre DejaVu Math';-inkscape-font-specification:'TeX Gyre DejaVu Math';letter-spacing:0px;word-spacing:0px;fill:#000000;fill-opacity:1;stroke:none;stroke-width:0.75"
       x="197.59621"
       y="-17.87483"
       id="text1722"
       transform="scale(1,-1)"><tspan
         sodipodi:role="line"
         id="tspan1720"
         x="197.59621"
         y="-17.87483"
         style="font-size:6px;stroke-width:0.75">1000</tspan></text>
<text
       xml:space="preserve"
       style="font-style:normal;font-variant:normal;font-weight:normal;font-stretch:normal;font-size:6px;line-height:1.25;font-family:'TeX Gyre DejaVu Math';-inkscape-font-specification:'TeX Gyre DejaVu Math';letter-spacing:0px;word-spacing:0px;fill:#000000;fill-opacity:1;stroke:none;stroke-width:0.75"
       x="229.57854"
       y="-17.87483"
       id="text1726"
       transform="scale(1,-1)"><tspan
         sodipodi:role="line"
         id="tspan1724"
         x="229.57854"
         y="-17.87483"
         style="font-size:6px;stroke-width:0.75">1200</tspan></text>
<text
       xml:space="preserve"
       style="font-style:normal;font-variant:normal;font-weight:normal;font-stretch:normal;font-size:6px;line-height:1.25;font-family:'TeX Gyre DejaVu Math';-inkscape-font-specification:'TeX Gyre DejaVu Math';letter-spacing:0px;word-spacing:0px;fill:#000000;fill-opacity:1;stroke:none;stroke-width:0.75"
       x="261.56088"
       y="-17.87483"
       id="text1730"
       transform="scale(1,-1)"><tspan
         sodipodi:role="line"
         id="tspan1728"
         x="261.56088"
         y="-17.87483"
         style="font-size:6px;stroke-width:0.75">1400</tspan></text>
<text
       xml:space="preserve"
       style="font-style:normal;font-variant:normal;font-weight:normal;font-stretch:normal;font-size:6px;line-height:1.25;font-family:'TeX Gyre DejaVu Math';-inkscape-font-specification:'TeX Gyre DejaVu Math';letter-spacing:0px;word-spacing:0px;fill:#000000;fill-opacity:1;stroke:none;stroke-width:0.75"
       x="293.54321"
       y="-17.87483"
       id="text1734"
       transform="scale(1,-1)"><tspan
         sodipodi:role="line"
         id="tspan1732"
         x="293.54321"
         y="-17.87483"
         style="font-size:6px;stroke-width:0.75">1600</tspan></text>
<text
       xml:space="preserve"
       style="font-style:normal;font-variant:normal;font-weight:normal;font-stretch:normal;font-size:6px;line-height:1.25;font-family:'TeX Gyre DejaVu Math';-inkscape-font-specification:'TeX Gyre DejaVu Math';letter-spacing:0px;word-spacing:0px;fill:#000000;fill-opacity:1;stroke:none;stroke-width:0.75"
       x="325.52554"
       y="-17.87483"
       id="text1738"
       transform="scale(1,-1)"><tspan
         sodipodi:role="line"
         id="tspan1736"
         x="325.52554"
         y="-17.87483"
         style="font-size:6px;stroke-width:0.75">1800</tspan></text>
<text
       xml:space="preserve"
       style="font-style:normal;font-variant:normal;font-weight:normal;font-stretch:normal;font-size:6px;line-height:1.25;font-family:'TeX Gyre DejaVu Math';-inkscape-font-specification:'TeX Gyre DejaVu Math';letter-spacing:0px;word-spacing:0px;fill:#000000;fill-opacity:1;stroke:none;stroke-width:0.75"
       x="357.66989"
       y="-17.87483"
       id="text1742"
       transform="scale(1,-1)"><tspan
         sodipodi:role="line"
         id="tspan1740"
         x="357.66989"
         y="-17.87483"
         style="font-size:6px;stroke-width:0.75">2000</tspan></text>
<text
       transform="scale(1,-1)"
       id="text1791"
       y="-17.87483"
       x="43.576508"
       style="font-style:normal;font-variant:normal;font-weight:normal;font-stretch:normal;font-size:6px;line-height:1.25;font-family:'TeX Gyre DejaVu Math';-inkscape-font-specification:'TeX Gyre DejaVu Math';letter-spacing:0px;word-spacing:0px;fill:#000000;fill-opacity:1;stroke:none;stroke-width:0.75"
       xml:space="preserve"><tspan
         style="font-size:6px;stroke-width:0.75"
         y="-17.87483"
         x="43.576508"
         id="tspan1789"
         sodipodi:role="line">0</tspan></text>
<text
       xml:space="preserve"
       style="font-style:normal;font-variant:normal;font-weight:normal;font-stretch:normal;font-size:6px;line-height:1.25;font-family:'TeX Gyre DejaVu Math';-inkscape-font-specification:'TeX Gyre DejaVu Math';letter-spacing:0px;word-spacing:0px;fill:#000000;fill-opacity:1;stroke:none;stroke-width:0.75"
       x="72.306015"
       y="-40.143745"
       id="text1795"
       transform="scale(1,-1)"><tspan
         sodipodi:role="line"
         id="tspan1793"
         x="72.306015"
         y="-40.143745"
         style="font-size:6px;stroke-width:0.75">A<tspan
   style="font-size:6px;baseline-shift:sub;stroke-width:0.75"
   id="tspan1813">0</tspan></tspan></text>
<text
       xml:space="preserve"
       style="font-style:normal;font-variant:normal;font-weight:normal;font-stretch:normal;font-size:6px;line-height:1.25;font-family:'TeX Gyre DejaVu Math';-inkscape-font-specification:'TeX Gyre DejaVu Math';letter-spacing:0px;word-spacing:0px;fill:#000000;fill-opacity:1;stroke:none;stroke-width:0.75"
       x="72.119644"
       y="-90.805557"
       id="text1799"
       transform="scale(1,-1)"><tspan
         sodipodi:role="line"
         id="tspan1797"
         x="72.119644"
         y="-90.805557"
         style="font-size:6px;stroke-width:0.75">S<tspan
   style="font-size:6px;baseline-shift:sub;stroke-width:0.75"
   id="tspan1815">0</tspan></tspan></text>
<text
       transform="scale(1,-1)"
       id="text1803"
       y="-161.55667"
       x="236.83095"
       style="font-style:normal;font-variant:normal;font-weight:normal;font-stretch:normal;font-size:6px;line-height:1.25;font-family:'TeX Gyre DejaVu Math';-inkscape-font-specification:'TeX Gyre DejaVu Math';letter-spacing:0px;word-spacing:0px;fill:#000000;fill-opacity:1;stroke:none;stroke-width:0.75"
       xml:space="preserve"><tspan
         style="font-size:6px;stroke-width:0.75"
         y="-161.55667"
         x="236.83095"
         id="tspan1801"
         sodipodi:role="line">S<tspan
   style="font-size:6px;baseline-shift:sub;stroke-width:0.75"
   id="tspan1821">1</tspan></tspan></text>
<text
       xml:space="preserve"
       style="font-style:normal;font-variant:normal;font-weight:normal;font-stretch:normal;font-size:6px;line-height:1.25;font-family:'TeX Gyre DejaVu Math';-inkscape-font-specification:'TeX Gyre DejaVu Math';letter-spacing:0px;word-spacing:0px;fill:#000000;fill-opacity:1;stroke:none;stroke-width:0.75"
       x="300.86511"
       y="-161.55667"
       id="text1807"
       transform="scale(1,-1)"><tspan
         sodipodi:role="line"
         id="tspan1805"
         x="300.86511"
         y="-161.55667"
         style="font-size:6px;stroke-width:0.75">S<tspan
   id="tspan2070"
   style="font-size:6px;baseline-shift:sub;stroke-width:0.75">2</tspan></tspan></text>
<text
       transform="scale(1,-1)"
       id="text1811"
       y="-161.55667"
       x="175.29807"
       style="font-style:normal;font-variant:normal;font-weight:normal;font-stretch:normal;font-size:6px;line-height:1.25;font-family:'TeX Gyre DejaVu Math';-inkscape-font-specification:'TeX Gyre DejaVu Math';letter-spacing:0px;word-spacing:0px;fill:#000000;fill-opacity:1;stroke:none;stroke-width:0.75"
       xml:space="preserve"><tspan
         style="font-size:6px;stroke-width:0.75"
         y="-161.55667"
         x="175.29807"
         id="tspan1809"
         sodipodi:role="line">A<tspan
   style="font-size:6px;baseline-shift:sub;stroke-width:0.75"
   id="tspan1817">1</tspan></tspan></text>
<path
       style="fill:none;stroke:#000000;stroke-width:0.45000002;stroke-linecap:butt;stroke-linejoin:miter;stroke-miterlimit:4;stroke-dasharray:1.80000006, 1.80000006;stroke-dashoffset:0;stroke-opacity:1"
       d="M 155.69272,203.52533 V 25.393896"
       id="path1955"
       inkscape:connector-curvature="0" /><text
       xml:space="preserve"
       style="font-style:normal;font-variant:normal;font-weight:normal;font-stretch:normal;font-size:6px;line-height:1.25;font-family:'TeX Gyre DejaVu Math';-inkscape-font-specification:'TeX Gyre DejaVu Math';letter-spacing:0px;word-spacing:0px;fill:#000000;fill-opacity:1;stroke:none;stroke-width:0.45000002"
       x="89.420876"
       y="151.96977"
       id="text1959"
       transform="matrix(0,1,1,0,0,0)"><tspan
         sodipodi:role="line"
         id="tspan1957"
         x="89.420876"
         y="151.96977"
         style="font-size:6px;stroke-width:0.45000002">cut-off frequency</tspan></text>
</g></svg>