<?xml version="1.0" encoding="UTF-8" standalone="no"?>
<!-- Created with Inkscape (http://www.inkscape.org/) -->

<svg
   xmlns:dc="http://purl.org/dc/elements/1.1/"
   xmlns:cc="http://creativecommons.org/ns#"
   xmlns:rdf="http://www.w3.org/1999/02/22-rdf-syntax-ns#"
   xmlns:svg="http://www.w3.org/2000/svg"
   xmlns="http://www.w3.org/2000/svg"
   xmlns:sodipodi="http://sodipodi.sourceforge.net/DTD/sodipodi-0.dtd"
   xmlns:inkscape="http://www.inkscape.org/namespaces/inkscape"
   version="1.1"
   id="svg2"
   xml:space="preserve"
   width="160mm"
   height="93mm"
   viewBox="0 0 362.83464 210.89755"
   sodipodi:docname="dispersion.svg"
   inkscape:version="0.92.5 (2060ec1f9f, 2020-04-08)"
   inkscape:export-filename="/home/pfiborek/Documents/GITHub/model_hc/docs/proposal/Dissertation/Figures/Intro/dispersion.png"
   inkscape:export-xdpi="600"
   inkscape:export-ydpi="600"><metadata
     id="metadata8"><rdf:RDF><cc:Work
         rdf:about=""><dc:format>image/svg+xml</dc:format><dc:type
           rdf:resource="http://purl.org/dc/dcmitype/StillImage" /><dc:title></dc:title></cc:Work></rdf:RDF></metadata><defs
     id="defs6"><clipPath
       clipPathUnits="userSpaceOnUse"
       id="clipPath20"><path
         d="M 0,0 H 1903.9999 V 1014 H 0 Z"
         id="path18"
         inkscape:connector-curvature="0" /></clipPath></defs><sodipodi:namedview
     pagecolor="#ffffff"
     bordercolor="#666666"
     borderopacity="1"
     objecttolerance="10"
     gridtolerance="10"
     guidetolerance="10"
     inkscape:pageopacity="0"
     inkscape:pageshadow="2"
     inkscape:window-width="1920"
     inkscape:window-height="948"
     id="namedview4"
     showgrid="false"
     units="mm"
     fit-margin-top="0.1"
     fit-margin-left="0.1"
     fit-margin-right="0.1"
     fit-margin-bottom="0.1"
     inkscape:zoom="1.1779568"
     inkscape:cx="123.85884"
     inkscape:cy="219.8143"
     inkscape:window-x="0"
     inkscape:window-y="27"
     inkscape:window-maximized="1"
     inkscape:current-layer="g10"
     scale-x="0.6"
     inkscape:document-units="mm" /><g
     id="g10"
     inkscape:groupmode="layer"
     inkscape:label="Dispersion"
     transform="matrix(1.3333333,0,0,-1.3333333,-27.169071,220.63597)"><text
   xml:space="preserve"
   style="font-style:normal;font-variant:normal;font-weight:normal;font-stretch:normal;font-size:6px;line-height:1.25;font-family:'TeX Gyre DejaVu Math';-inkscape-font-specification:'TeX Gyre DejaVu Math';letter-spacing:0px;word-spacing:0px;fill:#000000;fill-opacity:1;stroke:none;stroke-width:0.75"
   x="78.690453"
   y="28.978283"
   id="text1156"
   transform="matrix(0,1,1,0,0,0)"><tspan
     sodipodi:role="line"
     id="tspan1154"
     x="78.690453"
     y="28.978283"
     style="font-size:6px;stroke-width:0.75">c<tspan
   style="font-size:6px;baseline-shift:sub;stroke-width:0.75"
   id="tspan1162">p</tspan> [m/ms]</tspan></text>

<text
   xml:space="preserve"
   style="font-style:normal;font-variant:normal;font-weight:normal;font-stretch:normal;font-size:6px;line-height:1.25;font-family:'TeX Gyre DejaVu Math';-inkscape-font-specification:'TeX Gyre DejaVu Math';letter-spacing:0px;word-spacing:0px;fill:#000000;fill-opacity:1;stroke:none;stroke-width:0.75"
   x="141.46002"
   y="-9.0093174"
   id="text1160"
   transform="scale(1,-1)"><tspan
     sodipodi:role="line"
     id="tspan1158"
     x="141.46002"
     y="-9.0093174"
     style="font-size:6px;stroke-width:0.75">f × h [kHz × mm]  </tspan></text>

<path
   d="M 41.488514,22.931747 H 282.10812"
   style="fill:none;stroke:#262626;stroke-width:0.50000024;stroke-linecap:square;stroke-linejoin:round;stroke-miterlimit:10;stroke-dasharray:none;stroke-opacity:1"
   id="path34-9"
   inkscape:connector-curvature="0" /><path
   d="M 41.488514,157.67873 H 282.10812"
   style="fill:none;stroke:#262626;stroke-width:0.50000024;stroke-linecap:square;stroke-linejoin:round;stroke-miterlimit:10;stroke-dasharray:none;stroke-opacity:1"
   id="path38-4"
   inkscape:connector-curvature="0" /><path
   d="m 65.550476,22.931747 v 2.406194"
   style="fill:none;stroke:#262626;stroke-width:0.50000024;stroke-linecap:square;stroke-linejoin:round;stroke-miterlimit:10;stroke-dasharray:none;stroke-opacity:1"
   id="path46-7"
   inkscape:connector-curvature="0" /><path
   d="m 89.612434,22.931747 v 2.406194"
   style="fill:none;stroke:#262626;stroke-width:0.50000024;stroke-linecap:square;stroke-linejoin:round;stroke-miterlimit:10;stroke-dasharray:none;stroke-opacity:1"
   id="path50-8"
   inkscape:connector-curvature="0" /><path
   d="m 113.6744,22.931747 v 2.406194"
   style="fill:none;stroke:#262626;stroke-width:0.50000024;stroke-linecap:square;stroke-linejoin:round;stroke-miterlimit:10;stroke-dasharray:none;stroke-opacity:1"
   id="path54-4"
   inkscape:connector-curvature="0" /><path
   d="m 137.73636,22.931747 v 2.406194"
   style="fill:none;stroke:#262626;stroke-width:0.50000024;stroke-linecap:square;stroke-linejoin:round;stroke-miterlimit:10;stroke-dasharray:none;stroke-opacity:1"
   id="path58-5"
   inkscape:connector-curvature="0" /><path
   d="m 161.79832,22.931747 v 2.406194"
   style="fill:none;stroke:#262626;stroke-width:0.50000024;stroke-linecap:square;stroke-linejoin:round;stroke-miterlimit:10;stroke-dasharray:none;stroke-opacity:1"
   id="path62-0"
   inkscape:connector-curvature="0" /><path
   d="m 185.86028,22.931747 v 2.406194"
   style="fill:none;stroke:#262626;stroke-width:0.50000024;stroke-linecap:square;stroke-linejoin:round;stroke-miterlimit:10;stroke-dasharray:none;stroke-opacity:1"
   id="path66-3"
   inkscape:connector-curvature="0" /><path
   d="m 209.92224,22.931747 v 2.406194"
   style="fill:none;stroke:#262626;stroke-width:0.50000024;stroke-linecap:square;stroke-linejoin:round;stroke-miterlimit:10;stroke-dasharray:none;stroke-opacity:1"
   id="path70-6"
   inkscape:connector-curvature="0" /><path
   d="m 233.9842,22.931747 v 2.406194"
   style="fill:none;stroke:#262626;stroke-width:0.50000024;stroke-linecap:square;stroke-linejoin:round;stroke-miterlimit:10;stroke-dasharray:none;stroke-opacity:1"
   id="path74-1"
   inkscape:connector-curvature="0" /><path
   d="m 258.04616,22.931747 v 2.406194"
   style="fill:none;stroke:#262626;stroke-width:0.50000024;stroke-linecap:square;stroke-linejoin:round;stroke-miterlimit:10;stroke-dasharray:none;stroke-opacity:1"
   id="path78-0"
   inkscape:connector-curvature="0" /><path
   d="m 65.550476,157.67873 v -2.4062"
   style="fill:none;stroke:#262626;stroke-width:0.50000024;stroke-linecap:square;stroke-linejoin:round;stroke-miterlimit:10;stroke-dasharray:none;stroke-opacity:1"
   id="path90-6"
   inkscape:connector-curvature="0" /><path
   d="m 89.612434,157.67873 v -2.4062"
   style="fill:none;stroke:#262626;stroke-width:0.50000024;stroke-linecap:square;stroke-linejoin:round;stroke-miterlimit:10;stroke-dasharray:none;stroke-opacity:1"
   id="path94-3"
   inkscape:connector-curvature="0" /><path
   d="m 113.6744,157.67873 v -2.4062"
   style="fill:none;stroke:#262626;stroke-width:0.50000024;stroke-linecap:square;stroke-linejoin:round;stroke-miterlimit:10;stroke-dasharray:none;stroke-opacity:1"
   id="path98-2"
   inkscape:connector-curvature="0" /><path
   d="m 137.73636,157.67873 v -2.4062"
   style="fill:none;stroke:#262626;stroke-width:0.50000024;stroke-linecap:square;stroke-linejoin:round;stroke-miterlimit:10;stroke-dasharray:none;stroke-opacity:1"
   id="path102-0"
   inkscape:connector-curvature="0" /><path
   d="m 161.79832,157.67873 v -2.4062"
   style="fill:none;stroke:#262626;stroke-width:0.50000024;stroke-linecap:square;stroke-linejoin:round;stroke-miterlimit:10;stroke-dasharray:none;stroke-opacity:1"
   id="path106-6"
   inkscape:connector-curvature="0" /><path
   d="m 185.86028,157.67873 v -2.4062"
   style="fill:none;stroke:#262626;stroke-width:0.50000024;stroke-linecap:square;stroke-linejoin:round;stroke-miterlimit:10;stroke-dasharray:none;stroke-opacity:1"
   id="path110-1"
   inkscape:connector-curvature="0" /><path
   d="m 209.92224,157.67873 v -2.4062"
   style="fill:none;stroke:#262626;stroke-width:0.50000024;stroke-linecap:square;stroke-linejoin:round;stroke-miterlimit:10;stroke-dasharray:none;stroke-opacity:1"
   id="path114-5"
   inkscape:connector-curvature="0" /><path
   d="m 233.9842,157.67873 v -2.4062"
   style="fill:none;stroke:#262626;stroke-width:0.50000024;stroke-linecap:square;stroke-linejoin:round;stroke-miterlimit:10;stroke-dasharray:none;stroke-opacity:1"
   id="path118-5"
   inkscape:connector-curvature="0" /><path
   d="m 258.04616,157.67873 v -2.4062"
   style="fill:none;stroke:#262626;stroke-width:0.50000024;stroke-linecap:square;stroke-linejoin:round;stroke-miterlimit:10;stroke-dasharray:none;stroke-opacity:1"
   id="path122-4"
   inkscape:connector-curvature="0" /><path
   d="M 41.488514,22.931747 V 157.67873"
   style="fill:none;stroke:#262626;stroke-width:0.50000024;stroke-linecap:square;stroke-linejoin:round;stroke-miterlimit:10;stroke-dasharray:none;stroke-opacity:1"
   id="path334-7"
   inkscape:connector-curvature="0" /><path
   d="M 282.10812,22.931747 V 157.67873"
   style="fill:none;stroke:#262626;stroke-width:0.50000024;stroke-linecap:square;stroke-linejoin:round;stroke-miterlimit:10;stroke-dasharray:none;stroke-opacity:1"
   id="path338-6"
   inkscape:connector-curvature="0" /><path
   d="m 41.488514,36.406441 h 2.406202"
   style="fill:none;stroke:#262626;stroke-width:0.50000024;stroke-linecap:square;stroke-linejoin:round;stroke-miterlimit:10;stroke-dasharray:none;stroke-opacity:1"
   id="path346-5"
   inkscape:connector-curvature="0" /><path
   d="m 41.488514,49.881142 h 2.406202"
   style="fill:none;stroke:#262626;stroke-width:0.50000024;stroke-linecap:square;stroke-linejoin:round;stroke-miterlimit:10;stroke-dasharray:none;stroke-opacity:1"
   id="path350-6"
   inkscape:connector-curvature="0" /><path
   d="m 41.488514,63.355843 h 2.406202"
   style="fill:none;stroke:#262626;stroke-width:0.50000024;stroke-linecap:square;stroke-linejoin:round;stroke-miterlimit:10;stroke-dasharray:none;stroke-opacity:1"
   id="path354-9"
   inkscape:connector-curvature="0" /><path
   d="m 41.488514,76.830544 h 2.406202"
   style="fill:none;stroke:#262626;stroke-width:0.50000024;stroke-linecap:square;stroke-linejoin:round;stroke-miterlimit:10;stroke-dasharray:none;stroke-opacity:1"
   id="path358-3"
   inkscape:connector-curvature="0" /><path
   d="m 41.488514,90.305242 h 2.406202"
   style="fill:none;stroke:#262626;stroke-width:0.50000024;stroke-linecap:square;stroke-linejoin:round;stroke-miterlimit:10;stroke-dasharray:none;stroke-opacity:1"
   id="path362-7"
   inkscape:connector-curvature="0" /><path
   d="m 41.488514,103.77994 h 2.406202"
   style="fill:none;stroke:#262626;stroke-width:0.50000024;stroke-linecap:square;stroke-linejoin:round;stroke-miterlimit:10;stroke-dasharray:none;stroke-opacity:1"
   id="path366-4"
   inkscape:connector-curvature="0" /><path
   d="m 41.488514,117.25464 h 2.406202"
   style="fill:none;stroke:#262626;stroke-width:0.50000024;stroke-linecap:square;stroke-linejoin:round;stroke-miterlimit:10;stroke-dasharray:none;stroke-opacity:1"
   id="path370-5"
   inkscape:connector-curvature="0" /><path
   d="m 41.488514,130.72934 h 2.406202"
   style="fill:none;stroke:#262626;stroke-width:0.50000024;stroke-linecap:square;stroke-linejoin:round;stroke-miterlimit:10;stroke-dasharray:none;stroke-opacity:1"
   id="path374-2"
   inkscape:connector-curvature="0" /><path
   d="m 41.488514,144.20404 h 2.406202"
   style="fill:none;stroke:#262626;stroke-width:0.50000024;stroke-linecap:square;stroke-linejoin:round;stroke-miterlimit:10;stroke-dasharray:none;stroke-opacity:1"
   id="path378-5"
   inkscape:connector-curvature="0" /><path
   d="m 282.10812,36.406441 h -2.4062"
   style="fill:none;stroke:#262626;stroke-width:0.50000024;stroke-linecap:square;stroke-linejoin:round;stroke-miterlimit:10;stroke-dasharray:none;stroke-opacity:1"
   id="path390-4"
   inkscape:connector-curvature="0" /><path
   d="m 282.10812,49.881142 h -2.4062"
   style="fill:none;stroke:#262626;stroke-width:0.50000024;stroke-linecap:square;stroke-linejoin:round;stroke-miterlimit:10;stroke-dasharray:none;stroke-opacity:1"
   id="path394-7"
   inkscape:connector-curvature="0" /><path
   d="m 282.10812,63.355843 h -2.4062"
   style="fill:none;stroke:#262626;stroke-width:0.50000024;stroke-linecap:square;stroke-linejoin:round;stroke-miterlimit:10;stroke-dasharray:none;stroke-opacity:1"
   id="path398-4"
   inkscape:connector-curvature="0" /><path
   d="m 282.10812,76.830544 h -2.4062"
   style="fill:none;stroke:#262626;stroke-width:0.50000024;stroke-linecap:square;stroke-linejoin:round;stroke-miterlimit:10;stroke-dasharray:none;stroke-opacity:1"
   id="path402-4"
   inkscape:connector-curvature="0" /><path
   d="m 282.10812,90.305242 h -2.4062"
   style="fill:none;stroke:#262626;stroke-width:0.50000024;stroke-linecap:square;stroke-linejoin:round;stroke-miterlimit:10;stroke-dasharray:none;stroke-opacity:1"
   id="path406-3"
   inkscape:connector-curvature="0" /><path
   d="m 282.10812,103.77994 h -2.4062"
   style="fill:none;stroke:#262626;stroke-width:0.50000024;stroke-linecap:square;stroke-linejoin:round;stroke-miterlimit:10;stroke-dasharray:none;stroke-opacity:1"
   id="path410-0"
   inkscape:connector-curvature="0" /><path
   d="m 282.10812,117.25464 h -2.4062"
   style="fill:none;stroke:#262626;stroke-width:0.50000024;stroke-linecap:square;stroke-linejoin:round;stroke-miterlimit:10;stroke-dasharray:none;stroke-opacity:1"
   id="path414-7"
   inkscape:connector-curvature="0" /><path
   d="m 282.10812,130.72934 h -2.4062"
   style="fill:none;stroke:#262626;stroke-width:0.50000024;stroke-linecap:square;stroke-linejoin:round;stroke-miterlimit:10;stroke-dasharray:none;stroke-opacity:1"
   id="path418-8"
   inkscape:connector-curvature="0" /><path
   d="m 282.10812,144.20404 h -2.4062"
   style="fill:none;stroke:#262626;stroke-width:0.50000024;stroke-linecap:square;stroke-linejoin:round;stroke-miterlimit:10;stroke-dasharray:none;stroke-opacity:1"
   id="path422-6"
   inkscape:connector-curvature="0" /><path
   d="m 41.488635,68.055712 1.20298,-0.0021 1.203101,-0.0029 1.203093,-0.0043 1.203101,-0.0057 1.203092,-0.0076 1.203102,-0.0094 1.2031,-0.01106 1.203094,-0.01278 1.2031,-0.01449 1.203094,-0.01627 1.2031,-0.01798 1.2031,-0.01976 1.203094,-0.02148 1.2031,-0.02334 1.203101,-0.02512 1.203093,-0.02697 1.203101,-0.0289 1.203101,-0.03061 1.203093,-0.03262 1.203101,-0.03447 1.2031,-0.03653 1.203094,-0.03839 1.2031,-0.04039 1.203101,-0.04253 1.203093,-0.04453 1.203101,-0.0466 1.2031,-0.04888 1.203094,-0.05088 1.2031,-0.05331 1.203101,-0.05545 1.203093,-0.05774 1.203098,-0.06009 1.203094,-0.06259 1.203108,-0.06515 1.203094,-0.06751 1.203101,-0.07022 1.203092,-0.07279 1.203101,-0.07557 1.2031,-0.07829 1.203093,-0.08127 1.2031,-0.08418 1.203093,-0.08723 1.203101,-0.09037 1.2031,-0.09362 1.203093,-0.09689 1.2031,-0.100366 1.203093,-0.10399 1.203096,-0.107737 1.20311,-0.111192 1.20309,-0.115309 1.20311,-0.119462 1.2031,-0.123601 1.20309,-0.128048 1.2031,-0.132671 1.20309,-0.137389 1.2031,-0.142377 1.2031,-0.147594 1.2031,-0.152981 1.2031,-0.158648 1.2031,-0.164528 1.2031,-0.170937 1.20309,-0.177252 1.2031,-0.184339 1.2031,-0.19146 1.20309,-0.199098 1.2031,-0.207239 1.2031,-0.215752 1.2031,-0.224794 1.2031,-0.234429 1.2031,-0.244962 1.20309,-0.255702 1.20311,-0.267413 1.2031,-0.280051 1.20309,-0.293703 1.2031,-0.308212 1.20309,-0.324153 1.2031,-0.341232 1.2031,-0.36022 1.2031,-0.380695 1.2031,-0.403381 1.2031,-0.428209 1.20309,-0.455813 1.2031,-0.486548 1.20309,-0.521451 1.2031,-0.56021 1.20311,-0.604576 1.20309,-0.65426 1.2031,-0.711842 1.20309,-0.777304 1.20311,-0.852628 1.20309,-0.937243 1.2031,-1.030779 1.2031,-1.129786 1.2031,-1.22254 1.2031,-1.291772 1.2031,-1.312588 1.2031,-1.270045 1.20309,-1.169405 1.20311,-1.036412 1.20309,-0.89841 1.2031,-0.771713 1.20309,-0.663617 1.2031,-0.572966 1.2031,-0.498364 1.2031,-0.436937 1.2031,-0.385854 1.20309,-0.343048 1.20311,-0.307177 1.20309,-0.276609 1.2031,-0.250556 1.20309,-0.22805 1.2031,-0.208431 1.2031,-0.191334 1.2031,-0.176244 1.2031,-0.162973 1.2031,-0.151094 1.2031,-0.14049 1.2031,-0.131013 1.20309,-0.122388 1.2031,-0.114647 1.2031,-0.107648 1.2031,-0.101111 1.2031,-0.09547 1.20309,-0.08987 1.2031,-0.08509 1.2031,-0.08035 1.20309,-0.07626 1.2031,-0.07247 1.2031,-0.0688 1.2031,-0.06546 1.2031,-0.06233 1.2031,-0.05941 1.20309,-0.0567 1.2031,-0.05418 1.2031,-0.0518 1.20309,-0.04959 1.2031,-0.04747 1.2031,-0.04551 1.2031,-0.04365 1.2031,-0.04185 1.2031,-0.04027 1.2031,-0.03863 1.2031,-0.03714 1.2031,-0.03577 1.20309,-0.03449 1.2031,-0.03318 1.2031,-0.03201 1.20309,-0.03085 1.20311,-0.02979 1.2031,-0.02879 1.20309,-0.02778 1.2031,-0.02683 1.20309,-0.02593 1.2031,-0.02508 1.20309,-0.02423 1.20311,-0.0235 1.2031,-0.02281 1.20309,-0.02201 1.2031,-0.02132 1.2031,-0.02069 1.2031,-0.0201 1.2031,-0.01948 1.20309,-0.01889 1.20311,-0.01836 1.20309,-0.01783 1.2031,-0.0173 1.2031,-0.01677 1.2031,-0.01635 1.2031,-0.01587 1.2031,-0.01545 1.20309,-0.01497 1.2031,-0.0146 1.2031,-0.01418 1.20309,-0.01387 1.2031,-0.0135 1.2031,-0.01312 1.20311,-0.01275 1.20309,-0.01249 1.2031,-0.01217 1.20309,-0.0118 1.2031,-0.01153 1.2031,-0.01127 1.20309,-0.01095 1.20311,-0.01069 1.2031,-0.01043 1.2031,-0.01021 1.2031,-0.0099 1.20309,-0.0097 1.2031,-0.0095 1.20309,-0.0093 1.2031,-0.0091 1.2031,-0.0088 1.2031,-0.0086 1.2031,-0.0085 1.2031,-0.0083 1.20309,-0.0081 1.2031,-0.0079 1.20309,-0.0077 1.2031,-0.0076 1.2031,-0.0074"
   style="fill:none;stroke:#ff0000;stroke-width:1;stroke-linecap:butt;stroke-linejoin:round;stroke-miterlimit:10;stroke-dasharray:none;stroke-opacity:1"
   id="path750-8"
   inkscape:connector-curvature="0" /><path
   d="m 181.37265,157.6948 -0.002,-0.48695 -0.002,-0.67374 -0.002,-0.67373 -0.002,-0.67374 -0.002,-0.67373 -0.002,-0.67373 -0.002,-0.67373 -0.002,-0.67374 -0.002,-0.67374 -0.002,-0.67374 -0.002,-0.67372 -0.002,-0.67374 -0.002,-0.67374 -0.002,-0.67374 -0.001,-0.67374 -0.002,-0.67372 -10e-4,-0.67374 -0.002,-0.67374 -0.002,-0.67373 -0.002,-0.67374 -0.001,-0.67373 -0.002,-0.67373 -0.001,-0.67373 -0.002,-0.67374 v -0.67374 -0.67373 -0.67373 -0.67374 -0.67374 -0.67375 -0.67371 l 9e-5,-0.67375 v -0.67373 -0.67374 -0.67373 -0.67373 l 0.002,-0.67374 0.002,-0.67373 0.001,-0.67374 0.002,-0.67373 0.001,-0.67374 0.002,-0.67373 0.002,-0.67373 0.003,-0.67374 0.003,-0.67373 0.003,-0.67374 0.003,-0.67375 0.004,-0.67372 0.004,-0.67374 0.005,-0.67373 0.005,-0.67374 0.005,-0.67374 0.005,-0.67372 0.006,-0.67374 0.006,-0.67374 0.007,-0.67373 0.007,-0.67373 0.008,-0.67374 0.008,-0.67373 0.008,-0.67374 0.009,-0.67373 0.009,-0.67375 0.01,-0.67372 0.0104,-0.67374 0.0113,-0.67373 0.0119,-0.67374 0.0126,-0.67374 0.0132,-0.67373 0.0141,-0.67374 0.015,-0.67373 0.0157,-0.67374 0.0167,-0.67373 0.0177,-0.67373 0.0187,-0.67374 0.0197,-0.67374 0.0208,-0.67373 0.022,-0.67374 0.0232,-0.67373 0.0246,-0.67373 0.0259,-0.67373 0.0273,-0.67374 0.0289,-0.67375 0.0305,-0.67372 0.0322,-0.67374 0.034,-0.67373 0.0359,-0.673738 0.0378,-0.673738 0.04,-0.673738 0.0422,-0.673731 0.0445,-0.673731 0.047,-0.673738 0.0496,-0.673731 0.0524,-0.673738 1.2031,-9.793503 1.2031,-5.253483 1.2031,-3.55313 1.2031,-2.667748 1.20311,-2.129847 1.20309,-1.771412 1.2031,-1.516964 1.20309,-1.328064 1.2031,-1.182613 1.2031,-1.067503 1.2031,-0.974174 1.2031,-0.896881 1.2031,-0.831954 1.2031,-0.77644 1.20309,-0.728299 1.2031,-0.686087 1.20309,-0.648779 1.20311,-0.615352 1.20309,-0.585158 1.2031,-0.557704 1.2031,-0.532592 1.2031,-0.50952 1.2031,-0.488068 1.20309,-0.468208 1.2031,-0.449632 1.20309,-0.432177 1.2031,-0.415812 1.20311,-0.400413 1.20309,-0.385805 1.20311,-0.372017 1.2031,-0.358951 1.20309,-0.346483 1.2031,-0.334658 1.20309,-0.32342 1.2031,-0.312628 1.2031,-0.302438 1.2031,-0.292589 1.2031,-0.28327 1.20309,-0.274293 1.2031,-0.265707 1.2031,-0.257513 1.20309,-0.249649 1.2031,-0.242084 1.2031,-0.234851 1.2031,-0.227939 1.2031,-0.221262 1.2031,-0.214817 1.20309,-0.208717 1.20311,-0.202764 1.2031,-0.197128 1.2031,-0.191637 1.20309,-0.186381 1.2031,-0.181292 1.2031,-0.176455 1.20309,-0.171767 1.2031,-0.167253 1.2031,-0.162915 1.20311,-0.158687 1.20309,-0.154681 1.2031,-0.150756 1.20309,-0.147009 1.2031,-0.143373 1.2031,-0.139908 1.20309,-0.136506 1.20311,-0.133235 1.20309,-0.130104 1.2031,-0.127087 1.2031,-0.124145 1.20309,-0.121272 1.2031,-0.118552 1.20309,-0.115891 1.20311,-0.113314 1.2031,-0.110874 1.2031,-0.108425 1.2031,-0.106171 1.2031,-0.103831 1.20309,-0.101758 1.2031,-0.09959 1.2031,-0.09761 1.20309,-0.09558 1.2031,-0.09366 1.2031,-0.09183 1.2031,-0.09005"
   style="fill:none;stroke:#ff0000;stroke-width:1;stroke-linecap:butt;stroke-linejoin:round;stroke-miterlimit:10;stroke-dasharray:none;stroke-opacity:1"
   id="path762-8"
   inkscape:connector-curvature="0" /><path
   d="m 218.76535,157.6948 0.10346,-0.54313 0.13069,-0.67374 0.1331,-0.67373 0.1356,-0.67373 0.13809,-0.67375 0.14073,-0.67372 1.20311,-5.28616 1.2031,-4.56585 1.20309,-3.98857 1.2031,-3.51762 1.20309,-3.12803 1.2031,-2.80138 1.20309,-2.52465 1.20311,-2.28796 1.2031,-2.08363 1.20309,-1.90612 1.2031,-1.75068 1.2031,-1.61385 1.2031,-1.49265 1.2031,-1.38478 1.20309,-1.28839 1.20311,-1.20187 1.20309,-1.12379 1.2031,-1.05327 1.2031,-0.98917 1.2031,-0.93093 1.2031,-0.87764 1.2031,-0.82894 1.20309,-0.78416 1.2031,-0.74304 1.2031,-0.70513 1.20309,-0.67003 1.2031,-0.63759 1.2031,-0.60744 1.20311,-0.57952 1.20309,-0.5535 1.2031,-0.52918 1.20309,-0.50655 1.2031,-0.48538 1.2031,-0.46547 1.20309,-0.446949 1.20311,-0.429518 1.2031,-0.413071 1.2031,-0.397693 1.2031,-0.383127 1.20309,-0.36945 1.2031,-0.356494 1.20309,-0.344337 1.2031,-0.332795 1.2031,-0.321893 1.2031,-0.311564 1.2031,-0.301738 1.2031,-0.292492 1.20309,-0.283674 1.2031,-0.275316 1.20309,-0.267363 1.2031,-0.259817 1.2031,-0.252685"
   style="fill:none;stroke:#ff0000;stroke-width:1;stroke-linecap:butt;stroke-linejoin:round;stroke-miterlimit:10;stroke-dasharray:none;stroke-opacity:1"
   id="path766-4"
   inkscape:connector-curvature="0" /><path
   d="m 41.488635,22.931747 1.20298,2.60309 1.203101,0.986578 1.203093,0.698032 1.203101,0.542399 1.203092,0.440963 1.203102,0.364964 1.2031,0.310966 1.203094,0.26617 1.2031,0.230686 1.203094,0.199948 1.2031,0.176212 1.2031,0.155306 1.203094,0.1384 1.2031,0.123325 1.203101,0.110499 1.203093,0.09955 1.203101,0.09016 1.203101,0.08212 1.203093,0.07436 1.203101,0.06845 1.2031,0.06267 1.203094,0.05769 1.2031,0.05364 1.203101,0.04963 1.203093,0.04619 1.203101,0.04318 1.2031,0.04037 1.203094,0.03773 1.2031,0.03567 1.203101,0.03355 1.203093,0.03164 1.203098,0.02995 1.203094,0.02842 1.203108,0.02698 1.203094,0.02566 1.203101,0.0245 1.203092,0.02323 1.203101,0.02233 1.2031,0.02128 1.203093,0.02043 1.2031,0.01963 1.203093,0.01867 1.203101,0.01804 1.2031,0.0173 1.203093,0.01672 1.2031,0.01609 1.203093,0.01545 1.203096,0.01497 1.20311,0.01439 1.20309,0.01392 1.20311,0.0135 1.2031,0.01296 1.20309,0.01265 1.2031,0.01217 1.20309,0.0118 1.2031,0.01144 1.2031,0.01106 1.2031,0.01074 1.2031,0.01037 1.2031,0.0101 1.2031,0.0098 1.20309,0.0095 1.2031,0.0093 1.2031,0.009 1.20309,0.0088 1.2031,0.0085 1.2031,0.0084 1.2031,0.008 1.2031,0.0079 1.2031,0.0077 1.20309,0.0075 1.20311,0.0072 1.2031,0.0071 1.20309,0.0068 1.2031,0.0067 1.20309,0.0066 1.2031,0.0064 1.2031,0.0062 1.2031,0.0061 1.2031,0.006 1.2031,0.0059 1.20309,0.0056 1.2031,0.0056 1.20309,0.0054 1.2031,0.0053 1.20311,0.0053 1.20309,0.0053 1.2031,0.0048 1.20309,0.0048 1.20311,0.0048 1.20309,0.0048 1.2031,0.0048 1.2031,0.0042 1.2031,0.0042 1.2031,0.0042 1.2031,0.0042 1.2031,0.0042 1.20309,0.0042 1.20311,0.0042 1.20309,0.0042 1.2031,0.0037 1.20309,0.0037 1.2031,0.0037 1.2031,0.0037 1.2031,0.0037 1.2031,0.0037 1.20309,0.0032 1.20311,0.0032 1.20309,0.0032 1.2031,0.0032 1.20309,0.0032 1.2031,0.0032 1.2031,0.0032 1.2031,0.0026 1.2031,0.0026 1.2031,0.0026 1.2031,0.0026 1.2031,0.0026 1.20309,0.0026 1.2031,0.0026 1.2031,0.0026 1.2031,0.0026 1.2031,0.0026 1.20309,0.0026 1.2031,0.0026 1.2031,0.0026 1.20309,0.0026 1.2031,0.0026 1.2031,0.0026 1.2031,0.0026 1.2031,0.0021 1.2031,0.0021 1.20309,0.0021 1.2031,0.0021 1.2031,0.0021 1.20309,0.0021 1.2031,0.0021 1.2031,0.0021 1.2031,0.0021 1.2031,0.0021 1.2031,0.0021 1.2031,0.0021 1.2031,0.0016 1.2031,0.0016 1.20309,0.0016 1.2031,0.0016 1.2031,0.0016 1.20309,0.0016 1.20311,0.0016 1.2031,0.0016 1.20309,0.0016 1.2031,0.0016 1.20309,0.0016 1.2031,0.0016 1.20309,0.0016 1.20311,0.0016 1.2031,0.0011 1.20309,0.0011 1.2031,0.0011 1.2031,0.0011 1.2031,0.0011 1.2031,0.0011 1.20309,0.0011 1.20311,0.0011 1.20309,0.0011 1.2031,0.0011 1.2031,0.0011 1.2031,0.0011 1.2031,0.0011 1.2031,0.0011 1.20309,0.0011 1.2031,0.0011 1.2031,5.29e-4 1.20309,5.29e-4 1.2031,0.0011 1.2031,5.29e-4 1.20311,5.3e-4 1.20309,0.0011 1.2031,5.29e-4 1.20309,5.29e-4 1.2031,5.3e-4 1.2031,0.0011 1.20309,5.29e-4 1.20311,5.3e-4 1.2031,0.0011 1.2031,5.29e-4 1.2031,5.29e-4 1.20309,0.0011 1.2031,5.29e-4 1.20309,5.28e-4 1.2031,0.0011 1.2031,5.29e-4 1.2031,5.29e-4 1.2031,0.0011 1.2031,5.29e-4 1.20309,5.29e-4 1.2031,5.29e-4 1.20309,0.0011 1.2031,5.29e-4 1.2031,3.97e-4"
   style="fill:none;stroke:#0000ff;stroke-width:1;stroke-linecap:butt;stroke-linejoin:round;stroke-miterlimit:10;stroke-dasharray:none;stroke-opacity:1"
   id="path770-3"
   inkscape:connector-curvature="0" /><path
   d="m 129.2451,157.6948 0.0696,-0.51108 1.2031,-7.84705 1.2031,-6.38751 1.2031,-5.3198 1.2031,-4.51173 1.2031,-3.88331 1.20309,-3.38356 1.2031,-2.97867 1.2031,-2.64557 1.20309,-2.36774 1.2031,-2.13326 1.2031,-1.9335 1.2031,-1.76166 1.2031,-1.61262 1.20309,-1.4826 1.2031,-1.36825 1.20309,-1.26729 1.20311,-1.17753 1.20309,-1.09737 1.2031,-1.02563 1.2031,-0.96091 1.2031,-0.90253 1.2031,-0.84959 1.2031,-0.801432 1.2031,-0.75749 1.20309,-0.717337 1.20311,-0.680517 1.20309,-0.646692 1.2031,-0.615529 1.2031,-0.586811 1.2031,-0.560246 1.2031,-0.535592 1.20309,-0.512795 1.2031,-0.491594 1.20309,-0.471875 1.20311,-0.453517 1.20309,-0.436417 1.2031,-0.420384 1.2031,-0.405487 1.2031,-0.391509 1.2031,-0.378395 1.20309,-0.366192 1.2031,-0.354696 1.20309,-0.343968 1.2031,-0.333841 1.20311,-0.324406 1.20309,-0.315469 1.2031,-0.307177 1.2031,-0.299286 1.2031,-0.29201 1.2031,-0.285059 1.20309,-0.27861 1.2031,-0.27254 1.2031,-0.266851 1.20309,-0.261533 1.20311,-0.256559 1.20309,-0.251955 1.20311,-0.247614 1.20309,-0.243589 1.2031,-0.239835 1.20309,-0.236396 1.2031,-0.233229 1.2031,-0.230325 1.2031,-0.227631 1.2031,-0.225179 1.2031,-0.223005 1.2031,-0.221063 1.2031,-0.219295 1.2031,-0.217799 1.20309,-0.216496 1.2031,-0.215459 1.2031,-0.214548 1.20309,-0.213931 1.2031,-0.213435 1.2031,-0.213291 1.2031,-0.213194 1.2031,-0.213382 1.2031,-0.213818 1.20309,-0.214451 1.2031,-0.215285 1.20309,-0.216324 1.2031,-0.217632 1.2031,-0.219115 1.2031,-0.220921 1.2031,-0.222846 1.20309,-0.225096 1.2031,-0.227617 1.2031,-0.230415 1.20309,-0.233394 1.20311,-0.236788 1.2031,-0.240376 1.2031,-0.244364 1.2031,-0.248622 1.2031,-0.253249 1.20309,-0.258207 1.2031,-0.263572 1.2031,-0.269402 1.2031,-0.275526 1.20309,-0.282214 1.2031,-0.289362 1.2031,-0.296961 1.2031,-0.305161 1.2031,-0.313932 1.20309,-0.323312 1.20311,-0.333296 1.20309,-0.344036 1.2031,-0.355553 1.20309,-0.367857 1.2031,-0.38098 1.2031,-0.395104 1.2031,-0.410146 1.2031,-0.426348 1.2031,-0.443617 1.2031,-0.462191 1.2031,-0.481989 1.20309,-0.503368 1.2031,-0.526091 1.20309,-0.550589 1.20311,-0.57668 1.20309,-0.604719 1.2031,-0.634585 1.2031,-0.66647 1.2031,-0.700416 1.20309,-0.73647 1.2031,-0.774549 1.2031,-0.814485 1.2031,-0.856125 1.2031,-0.898971"
   style="fill:none;stroke:#0000ff;stroke-width:1;stroke-linecap:butt;stroke-linejoin:round;stroke-miterlimit:10;stroke-dasharray:none;stroke-opacity:1"
   id="path782-1"
   inkscape:connector-curvature="0" /><text
   xml:space="preserve"
   style="font-style:normal;font-variant:normal;font-weight:normal;font-stretch:normal;font-size:6px;line-height:1.25;font-family:'TeX Gyre DejaVu Math';-inkscape-font-specification:'TeX Gyre DejaVu Math';letter-spacing:0px;word-spacing:0px;fill:#000000;fill-opacity:1;stroke:none;stroke-width:0.75"
   x="36.345764"
   y="-21.288609"
   id="text1662"
   transform="scale(1,-1)"><tspan
     sodipodi:role="line"
     id="tspan1660"
     x="36.345764"
     y="-21.288609"
     style="font-size:6px;stroke-width:0.75">0</tspan></text>

<text
   xml:space="preserve"
   style="font-style:normal;font-variant:normal;font-weight:normal;font-stretch:normal;font-size:6px;line-height:1.25;font-family:'TeX Gyre DejaVu Math';-inkscape-font-specification:'TeX Gyre DejaVu Math';letter-spacing:0px;word-spacing:0px;fill:#000000;fill-opacity:1;stroke:none;stroke-width:0.75"
   x="36.537766"
   y="-34.731712"
   id="text1666"
   transform="scale(1,-1)"><tspan
     sodipodi:role="line"
     id="tspan1664"
     x="36.537766"
     y="-34.731712"
     style="font-size:6px;stroke-width:0.75">2</tspan></text>

<text
   xml:space="preserve"
   style="font-style:normal;font-variant:normal;font-weight:normal;font-stretch:normal;font-size:6px;line-height:1.25;font-family:'TeX Gyre DejaVu Math';-inkscape-font-specification:'TeX Gyre DejaVu Math';letter-spacing:0px;word-spacing:0px;fill:#000000;fill-opacity:1;stroke:none;stroke-width:0.75"
   x="36.249763"
   y="-48.206409"
   id="text1670"
   transform="scale(1,-1)"><tspan
     sodipodi:role="line"
     id="tspan1668"
     x="36.249763"
     y="-48.206409"
     style="font-size:6px;stroke-width:0.75">4</tspan></text>

<text
   xml:space="preserve"
   style="font-style:normal;font-variant:normal;font-weight:normal;font-stretch:normal;font-size:6px;line-height:1.25;font-family:'TeX Gyre DejaVu Math';-inkscape-font-specification:'TeX Gyre DejaVu Math';letter-spacing:0px;word-spacing:0px;fill:#000000;fill-opacity:1;stroke:none;stroke-width:0.75"
   x="36.327763"
   y="-61.712711"
   id="text1674"
   transform="scale(1,-1)"><tspan
     sodipodi:role="line"
     id="tspan1672"
     x="36.327763"
     y="-61.712711"
     style="font-size:6px;stroke-width:0.75">6</tspan></text>

<text
   xml:space="preserve"
   style="font-style:normal;font-variant:normal;font-weight:normal;font-stretch:normal;font-size:6px;line-height:1.25;font-family:'TeX Gyre DejaVu Math';-inkscape-font-specification:'TeX Gyre DejaVu Math';letter-spacing:0px;word-spacing:0px;fill:#000000;fill-opacity:1;stroke:none;stroke-width:0.75"
   x="36.351765"
   y="-75.187408"
   id="text1678"
   transform="scale(1,-1)"><tspan
     sodipodi:role="line"
     id="tspan1676"
     x="36.351765"
     y="-75.187408"
     style="font-size:6px;stroke-width:0.75">8</tspan></text>

<text
   xml:space="preserve"
   style="font-style:normal;font-variant:normal;font-weight:normal;font-stretch:normal;font-size:6px;line-height:1.25;font-family:'TeX Gyre DejaVu Math';-inkscape-font-specification:'TeX Gyre DejaVu Math';letter-spacing:0px;word-spacing:0px;fill:#000000;fill-opacity:1;stroke:none;stroke-width:0.75"
   x="32.529766"
   y="-88.662109"
   id="text1682"
   transform="scale(1,-1)"><tspan
     sodipodi:role="line"
     id="tspan1680"
     x="32.529766"
     y="-88.662109"
     style="font-size:6px;stroke-width:0.75">10</tspan></text>

<text
   xml:space="preserve"
   style="font-style:normal;font-variant:normal;font-weight:normal;font-stretch:normal;font-size:6px;line-height:1.25;font-family:'TeX Gyre DejaVu Math';-inkscape-font-specification:'TeX Gyre DejaVu Math';letter-spacing:0px;word-spacing:0px;fill:#000000;fill-opacity:1;stroke:none;stroke-width:0.75"
   x="32.721767"
   y="-102.1052"
   id="text1686"
   transform="scale(1,-1)"><tspan
     sodipodi:role="line"
     id="tspan1684"
     x="32.721767"
     y="-102.1052"
     style="font-size:6px;stroke-width:0.75">12</tspan></text>

<text
   xml:space="preserve"
   style="font-style:normal;font-variant:normal;font-weight:normal;font-stretch:normal;font-size:6px;line-height:1.25;font-family:'TeX Gyre DejaVu Math';-inkscape-font-specification:'TeX Gyre DejaVu Math';letter-spacing:0px;word-spacing:0px;fill:#000000;fill-opacity:1;stroke:none;stroke-width:0.75"
   x="32.433765"
   y="-115.5799"
   id="text1690"
   transform="scale(1,-1)"><tspan
     sodipodi:role="line"
     id="tspan1688"
     x="32.433765"
     y="-115.5799"
     style="font-size:6px;stroke-width:0.75">14</tspan></text>

<text
   xml:space="preserve"
   style="font-style:normal;font-variant:normal;font-weight:normal;font-stretch:normal;font-size:6px;line-height:1.25;font-family:'TeX Gyre DejaVu Math';-inkscape-font-specification:'TeX Gyre DejaVu Math';letter-spacing:0px;word-spacing:0px;fill:#000000;fill-opacity:1;stroke:none;stroke-width:0.75"
   x="32.511765"
   y="-129.0862"
   id="text1694"
   transform="scale(1,-1)"><tspan
     sodipodi:role="line"
     id="tspan1692"
     x="32.511765"
     y="-129.0862"
     style="font-size:6px;stroke-width:0.75">16</tspan></text>

<text
   xml:space="preserve"
   style="font-style:normal;font-variant:normal;font-weight:normal;font-stretch:normal;font-size:6px;line-height:1.25;font-family:'TeX Gyre DejaVu Math';-inkscape-font-specification:'TeX Gyre DejaVu Math';letter-spacing:0px;word-spacing:0px;fill:#000000;fill-opacity:1;stroke:none;stroke-width:0.75"
   x="32.535767"
   y="-142.5609"
   id="text1698"
   transform="scale(1,-1)"><tspan
     sodipodi:role="line"
     id="tspan1696"
     x="32.535767"
     y="-142.5609"
     style="font-size:6px;stroke-width:0.75">18</tspan></text>

<text
   xml:space="preserve"
   style="font-style:normal;font-variant:normal;font-weight:normal;font-stretch:normal;font-size:6px;line-height:1.25;font-family:'TeX Gyre DejaVu Math';-inkscape-font-specification:'TeX Gyre DejaVu Math';letter-spacing:0px;word-spacing:0px;fill:#000000;fill-opacity:1;stroke:none;stroke-width:0.75"
   x="32.529766"
   y="-156.03558"
   id="text1702"
   transform="scale(1,-1)"><tspan
     sodipodi:role="line"
     id="tspan1700"
     x="32.529766"
     y="-156.03558"
     style="font-size:6px;stroke-width:0.75">20</tspan></text>

<text
   xml:space="preserve"
   style="font-style:normal;font-variant:normal;font-weight:normal;font-stretch:normal;font-size:6px;line-height:1.25;font-family:'TeX Gyre DejaVu Math';-inkscape-font-specification:'TeX Gyre DejaVu Math';letter-spacing:0px;word-spacing:0px;fill:#000000;fill-opacity:1;stroke:none;stroke-width:0.75"
   x="59.820477"
   y="-17.2859"
   id="text1706"
   transform="scale(1,-1)"><tspan
     sodipodi:role="line"
     id="tspan1704"
     x="59.820477"
     y="-17.2859"
     style="font-size:6px;stroke-width:0.75">200</tspan></text>

<text
   xml:space="preserve"
   style="font-style:normal;font-variant:normal;font-weight:normal;font-stretch:normal;font-size:6px;line-height:1.25;font-family:'TeX Gyre DejaVu Math';-inkscape-font-specification:'TeX Gyre DejaVu Math';letter-spacing:0px;word-spacing:0px;fill:#000000;fill-opacity:1;stroke:none;stroke-width:0.75"
   x="83.993439"
   y="-17.2859"
   id="text1710"
   transform="scale(1,-1)"><tspan
     sodipodi:role="line"
     id="tspan1708"
     x="83.993439"
     y="-17.2859"
     style="font-size:6px;stroke-width:0.75">400</tspan></text>

<text
   xml:space="preserve"
   style="font-style:normal;font-variant:normal;font-weight:normal;font-stretch:normal;font-size:6px;line-height:1.25;font-family:'TeX Gyre DejaVu Math';-inkscape-font-specification:'TeX Gyre DejaVu Math';letter-spacing:0px;word-spacing:0px;fill:#000000;fill-opacity:1;stroke:none;stroke-width:0.75"
   x="107.9474"
   y="-17.2859"
   id="text1714"
   transform="scale(1,-1)"><tspan
     sodipodi:role="line"
     id="tspan1712"
     x="107.9474"
     y="-17.2859"
     style="font-size:6px;stroke-width:0.75">600</tspan></text>

<text
   xml:space="preserve"
   style="font-style:normal;font-variant:normal;font-weight:normal;font-stretch:normal;font-size:6px;line-height:1.25;font-family:'TeX Gyre DejaVu Math';-inkscape-font-specification:'TeX Gyre DejaVu Math';letter-spacing:0px;word-spacing:0px;fill:#000000;fill-opacity:1;stroke:none;stroke-width:0.75"
   x="132.00937"
   y="-17.2859"
   id="text1718"
   transform="scale(1,-1)"><tspan
     sodipodi:role="line"
     id="tspan1716"
     x="132.00937"
     y="-17.2859"
     style="font-size:6px;stroke-width:0.75">800</tspan></text>

<text
   xml:space="preserve"
   style="font-style:normal;font-variant:normal;font-weight:normal;font-stretch:normal;font-size:6px;line-height:1.25;font-family:'TeX Gyre DejaVu Math';-inkscape-font-specification:'TeX Gyre DejaVu Math';letter-spacing:0px;word-spacing:0px;fill:#000000;fill-opacity:1;stroke:none;stroke-width:0.75"
   x="153.99832"
   y="-17.2859"
   id="text1722"
   transform="scale(1,-1)"><tspan
     sodipodi:role="line"
     id="tspan1720"
     x="153.99832"
     y="-17.2859"
     style="font-size:6px;stroke-width:0.75">1000</tspan></text>

<text
   xml:space="preserve"
   style="font-style:normal;font-variant:normal;font-weight:normal;font-stretch:normal;font-size:6px;line-height:1.25;font-family:'TeX Gyre DejaVu Math';-inkscape-font-specification:'TeX Gyre DejaVu Math';letter-spacing:0px;word-spacing:0px;fill:#000000;fill-opacity:1;stroke:none;stroke-width:0.75"
   x="178.06029"
   y="-17.2859"
   id="text1726"
   transform="scale(1,-1)"><tspan
     sodipodi:role="line"
     id="tspan1724"
     x="178.06029"
     y="-17.2859"
     style="font-size:6px;stroke-width:0.75">1200</tspan></text>

<text
   xml:space="preserve"
   style="font-style:normal;font-variant:normal;font-weight:normal;font-stretch:normal;font-size:6px;line-height:1.25;font-family:'TeX Gyre DejaVu Math';-inkscape-font-specification:'TeX Gyre DejaVu Math';letter-spacing:0px;word-spacing:0px;fill:#000000;fill-opacity:1;stroke:none;stroke-width:0.75"
   x="202.12224"
   y="-17.2859"
   id="text1730"
   transform="scale(1,-1)"><tspan
     sodipodi:role="line"
     id="tspan1728"
     x="202.12224"
     y="-17.2859"
     style="font-size:6px;stroke-width:0.75">1400</tspan></text>

<text
   xml:space="preserve"
   style="font-style:normal;font-variant:normal;font-weight:normal;font-stretch:normal;font-size:6px;line-height:1.25;font-family:'TeX Gyre DejaVu Math';-inkscape-font-specification:'TeX Gyre DejaVu Math';letter-spacing:0px;word-spacing:0px;fill:#000000;fill-opacity:1;stroke:none;stroke-width:0.75"
   x="226.1842"
   y="-17.2859"
   id="text1734"
   transform="scale(1,-1)"><tspan
     sodipodi:role="line"
     id="tspan1732"
     x="226.1842"
     y="-17.2859"
     style="font-size:6px;stroke-width:0.75">1600</tspan></text>

<text
   xml:space="preserve"
   style="font-style:normal;font-variant:normal;font-weight:normal;font-stretch:normal;font-size:6px;line-height:1.25;font-family:'TeX Gyre DejaVu Math';-inkscape-font-specification:'TeX Gyre DejaVu Math';letter-spacing:0px;word-spacing:0px;fill:#000000;fill-opacity:1;stroke:none;stroke-width:0.75"
   x="250.24617"
   y="-17.2859"
   id="text1738"
   transform="scale(1,-1)"><tspan
     sodipodi:role="line"
     id="tspan1736"
     x="250.24617"
     y="-17.2859"
     style="font-size:6px;stroke-width:0.75">1800</tspan></text>

<text
   xml:space="preserve"
   style="font-style:normal;font-variant:normal;font-weight:normal;font-stretch:normal;font-size:6px;line-height:1.25;font-family:'TeX Gyre DejaVu Math';-inkscape-font-specification:'TeX Gyre DejaVu Math';letter-spacing:0px;word-spacing:0px;fill:#000000;fill-opacity:1;stroke:none;stroke-width:0.75"
   x="274.47012"
   y="-17.2859"
   id="text1742"
   transform="scale(1,-1)"><tspan
     sodipodi:role="line"
     id="tspan1740"
     x="274.47012"
     y="-17.2859"
     style="font-size:6px;stroke-width:0.75">2000</tspan></text>

<text
   transform="scale(1,-1)"
   id="text1791"
   y="-17.2859"
   x="40.053032"
   style="font-style:normal;font-variant:normal;font-weight:normal;font-stretch:normal;font-size:6px;line-height:1.25;font-family:'TeX Gyre DejaVu Math';-inkscape-font-specification:'TeX Gyre DejaVu Math';letter-spacing:0px;word-spacing:0px;fill:#000000;fill-opacity:1;stroke:none;stroke-width:0.75"
   xml:space="preserve"><tspan
     style="font-size:6px;stroke-width:0.75"
     y="-17.2859"
     x="40.053032"
     id="tspan1789"
     sodipodi:role="line">0</tspan></text>

<text
   xml:space="preserve"
   style="font-style:normal;font-variant:normal;font-weight:normal;font-stretch:normal;font-size:6px;line-height:1.25;font-family:'TeX Gyre DejaVu Math';-inkscape-font-specification:'TeX Gyre DejaVu Math';letter-spacing:0px;word-spacing:0px;fill:#000000;fill-opacity:1;stroke:none;stroke-width:0.75"
   x="61.667717"
   y="-34.039955"
   id="text1795"
   transform="scale(1,-1)"><tspan
     sodipodi:role="line"
     id="tspan1793"
     x="61.667717"
     y="-34.039955"
     style="font-size:6px;stroke-width:0.75">A<tspan
   style="font-size:6px;baseline-shift:sub;stroke-width:0.75"
   id="tspan1813">0</tspan></tspan></text>

<text
   xml:space="preserve"
   style="font-style:normal;font-variant:normal;font-weight:normal;font-stretch:normal;font-size:6px;line-height:1.25;font-family:'TeX Gyre DejaVu Math';-inkscape-font-specification:'TeX Gyre DejaVu Math';letter-spacing:0px;word-spacing:0px;fill:#000000;fill-opacity:1;stroke:none;stroke-width:0.75"
   x="61.527504"
   y="-72.155449"
   id="text1799"
   transform="scale(1,-1)"><tspan
     sodipodi:role="line"
     id="tspan1797"
     x="61.527504"
     y="-72.155449"
     style="font-size:6px;stroke-width:0.75">S<tspan
   style="font-size:6px;baseline-shift:sub;stroke-width:0.75"
   id="tspan1815">0</tspan></tspan></text>

<text
   transform="scale(1,-1)"
   id="text1803"
   y="-125.38515"
   x="185.44829"
   style="font-style:normal;font-variant:normal;font-weight:normal;font-stretch:normal;font-size:6px;line-height:1.25;font-family:'TeX Gyre DejaVu Math';-inkscape-font-specification:'TeX Gyre DejaVu Math';letter-spacing:0px;word-spacing:0px;fill:#000000;fill-opacity:1;stroke:none;stroke-width:0.75"
   xml:space="preserve"><tspan
     style="font-size:6px;stroke-width:0.75"
     y="-125.38515"
     x="185.44829"
     id="tspan1801"
     sodipodi:role="line">S<tspan
   style="font-size:6px;baseline-shift:sub;stroke-width:0.75"
   id="tspan1821">1</tspan></tspan></text>

<text
   xml:space="preserve"
   style="font-style:normal;font-variant:normal;font-weight:normal;font-stretch:normal;font-size:6px;line-height:1.25;font-family:'TeX Gyre DejaVu Math';-inkscape-font-specification:'TeX Gyre DejaVu Math';letter-spacing:0px;word-spacing:0px;fill:#000000;fill-opacity:1;stroke:none;stroke-width:0.75"
   x="233.6245"
   y="-125.38515"
   id="text1807"
   transform="scale(1,-1)"><tspan
     sodipodi:role="line"
     id="tspan1805"
     x="233.6245"
     y="-125.38515"
     style="font-size:6px;stroke-width:0.75">S<tspan
   id="tspan2070"
   style="font-size:6px;baseline-shift:sub;stroke-width:0.75">2</tspan></tspan></text>

<text
   transform="scale(1,-1)"
   id="text1811"
   y="-125.38515"
   x="139.15393"
   style="font-style:normal;font-variant:normal;font-weight:normal;font-stretch:normal;font-size:6px;line-height:1.25;font-family:'TeX Gyre DejaVu Math';-inkscape-font-specification:'TeX Gyre DejaVu Math';letter-spacing:0px;word-spacing:0px;fill:#000000;fill-opacity:1;stroke:none;stroke-width:0.75"
   xml:space="preserve"><tspan
     style="font-size:6px;stroke-width:0.75"
     y="-125.38515"
     x="139.15393"
     id="tspan1809"
     sodipodi:role="line">A<tspan
   style="font-size:6px;baseline-shift:sub;stroke-width:0.75"
   id="tspan1817">1</tspan></tspan></text>

<path
   style="fill:none;stroke:#000000;stroke-width:0.45000002;stroke-linecap:butt;stroke-linejoin:miter;stroke-miterlimit:4;stroke-dasharray:1.80000005, 1.80000005;stroke-dashoffset:0;stroke-opacity:1"
   d="M 124.40383,156.96034 V 22.942881"
   id="path1955"
   inkscape:connector-curvature="0" /><text
   xml:space="preserve"
   style="font-style:normal;font-variant:normal;font-weight:normal;font-stretch:normal;font-size:6px;line-height:1.25;font-family:'TeX Gyre DejaVu Math';-inkscape-font-specification:'TeX Gyre DejaVu Math';letter-spacing:0px;word-spacing:0px;fill:#000000;fill-opacity:1;stroke:none;stroke-width:0.45000002"
   x="71.113678"
   y="121.60287"
   id="text1959"
   transform="matrix(0,1,1,0,0,0)"><tspan
     sodipodi:role="line"
     id="tspan1957"
     x="71.113678"
     y="121.60287"
     style="font-size:6px;stroke-width:0.45000002">cut-off frequency</tspan></text>

</g></svg>